<svg xmlns="http://www.w3.org/2000/svg" xmlns:xlink="http://www.w3.org/1999/xlink" width="720" height="488" viewBox="0 0 720 488"><defs><style>.a,.b,.d,.k{fill:#444;}.a,.b{font-size:18px;}.a,.d,.f{font-family:SourceSansPro-Bold, Source Sans Pro;}.a,.b,.d,.f{font-weight:700;}.b{font-family:Arial-BoldMT, Arial;}.c,.i,.n{fill:#fff;}.c{stroke:#767676;}.d,.k{font-size:16px;}.e,.g,.k{font-family:SourceSansPro-Regular, Source Sans Pro;}.e,.g{font-weight:400;}.g{fill:#2f8732;}.h{fill:#f5e2ff;}.h,.l{stroke:#b03bed;}.i{stroke:#555;}.j,.l{fill:#b03bed;}.m{fill:#ddd;}.n,.o{font-size:14px;font-family:ArialMT, Arial;}.o{fill:#333;}.p,.r{fill:none;}.p{stroke:#2f4f4f;}.q{stroke:none;}.s{filter:url(#aa);}.t{filter:url(#y);}.u{filter:url(#w);}.v{filter:url(#u);}.w{filter:url(#s);}.x{filter:url(#q);}.y{filter:url(#o);}.z{filter:url(#m);}.aa{filter:url(#k);}.ab{filter:url(#i);}.ac{filter:url(#g);}.ad{filter:url(#e);}.ae{filter:url(#c);}.af{filter:url(#a);}</style><filter id="a" x="391" y="148" width="318" height="78" filterUnits="userSpaceOnUse"><feOffset dy="2" input="SourceAlpha"/><feGaussianBlur stdDeviation="3" result="b"/><feFlood flood-opacity="0.078"/><feComposite operator="in" in2="b"/><feComposite in="SourceGraphic"/></filter><filter id="c" x="391" y="220" width="318" height="90" filterUnits="userSpaceOnUse"><feOffset dy="2" input="SourceAlpha"/><feGaussianBlur stdDeviation="3" result="d"/><feFlood flood-opacity="0.078"/><feComposite operator="in" in2="d"/><feComposite in="SourceGraphic"/></filter><filter id="e" x="391" y="304" width="318" height="90" filterUnits="userSpaceOnUse"><feOffset dy="2" input="SourceAlpha"/><feGaussianBlur stdDeviation="3" result="f"/><feFlood flood-opacity="0.078"/><feComposite operator="in" in2="f"/><feComposite in="SourceGraphic"/></filter><filter id="g" x="391" y="388" width="318" height="90" filterUnits="userSpaceOnUse"><feOffset dy="2" input="SourceAlpha"/><feGaussianBlur stdDeviation="3" result="h"/><feFlood flood-opacity="0.078"/><feComposite operator="in" in2="h"/><feComposite in="SourceGraphic"/></filter><filter id="i" x="583" y="31" width="128" height="78" filterUnits="userSpaceOnUse"><feOffset dy="2" input="SourceAlpha"/><feGaussianBlur stdDeviation="3" result="j"/><feFlood flood-opacity="0.078"/><feComposite operator="in" in2="j"/><feComposite in="SourceGraphic"/></filter><filter id="k" x="391" y="31" width="188" height="78" filterUnits="userSpaceOnUse"><feOffset dy="2" input="SourceAlpha"/><feGaussianBlur stdDeviation="3" result="l"/><feFlood flood-opacity="0.078"/><feComposite operator="in" in2="l"/><feComposite in="SourceGraphic"/></filter><filter id="m" x="15" y="37" width="233" height="42" filterUnits="userSpaceOnUse"><feOffset dy="2" input="SourceAlpha"/><feGaussianBlur stdDeviation="2" result="n"/><feFlood flood-color="#ddd"/><feComposite operator="in" in2="n"/><feComposite in="SourceGraphic"/></filter><filter id="o" x="15" y="79" width="301" height="42" filterUnits="userSpaceOnUse"><feOffset dy="2" input="SourceAlpha"/><feGaussianBlur stdDeviation="2" result="p"/><feFlood flood-color="#ddd"/><feComposite operator="in" in2="p"/><feComposite in="SourceGraphic"/></filter><filter id="q" x="15" y="121" width="309" height="42" filterUnits="userSpaceOnUse"><feOffset dy="2" input="SourceAlpha"/><feGaussianBlur stdDeviation="2" result="r"/><feFlood flood-color="#ddd"/><feComposite operator="in" in2="r"/><feComposite in="SourceGraphic"/></filter><filter id="s" x="13" y="160" width="314" height="48" filterUnits="userSpaceOnUse"><feOffset dy="2" input="SourceAlpha"/><feGaussianBlur stdDeviation="3" result="t"/><feFlood flood-color="#bbb"/><feComposite operator="in" in2="t"/><feComposite in="SourceGraphic"/></filter><filter id="u" x="15" y="247" width="271" height="42" filterUnits="userSpaceOnUse"><feOffset dy="2" input="SourceAlpha"/><feGaussianBlur stdDeviation="2" result="v"/><feFlood flood-color="#ddd"/><feComposite operator="in" in2="v"/><feComposite in="SourceGraphic"/></filter><filter id="w" x="15" y="289" width="278" height="42" filterUnits="userSpaceOnUse"><feOffset dy="2" input="SourceAlpha"/><feGaussianBlur stdDeviation="2" result="x"/><feFlood flood-color="#ddd"/><feComposite operator="in" in2="x"/><feComposite in="SourceGraphic"/></filter><filter id="y" x="16" y="331" width="278" height="42" filterUnits="userSpaceOnUse"><feOffset dy="2" input="SourceAlpha"/><feGaussianBlur stdDeviation="2" result="z"/><feFlood flood-color="#ddd"/><feComposite operator="in" in2="z"/><feComposite in="SourceGraphic"/></filter><filter id="aa" x="15" y="205" width="199" height="42" filterUnits="userSpaceOnUse"><feOffset dy="2" input="SourceAlpha"/><feGaussianBlur stdDeviation="2" result="ab"/><feFlood flood-color="#ddd"/><feComposite operator="in" in2="ab"/><feComposite in="SourceGraphic"/></filter></defs><g transform="translate(-621 -204)"><text class="a" transform="translate(1021 231)"><tspan x="0" y="0">Selecione a versão:</tspan></text><text class="b" transform="translate(642 233)"><tspan x="0" y="0">Combos:</tspan></text><g class="af" transform="matrix(1, 0, 0, 1, 621, 204)"><g class="c" transform="translate(400 155)"><rect class="q" width="300" height="60" rx="6"/><rect class="r" x="0.5" y="0.5" width="299" height="59" rx="5.5"/></g></g><text class="a" transform="translate(1021 348)"><tspan x="0" y="0">Selecione a quantidade:</tspan></text><g class="c" transform="translate(1041 375)"><circle class="q" cx="14" cy="14" r="14"/><circle class="r" cx="14" cy="14" r="13.5"/></g><text class="d" transform="translate(1189 384)"><tspan x="-68.808" y="0">1 unidade</tspan><tspan class="e" y="0" xml:space="preserve"> | 60 doses</tspan><tspan class="e"><tspan x="-34.952" y="20">por</tspan><tspan class="f" y="20" xml:space="preserve"> R$200</tspan></tspan></text><g class="ae" transform="matrix(1, 0, 0, 1, 621, 204)"><g class="c" transform="translate(400 227)"><rect class="q" width="300" height="72" rx="6"/><rect class="r" x="0.5" y="0.5" width="299" height="71" rx="5.5"/></g></g><g class="c" transform="translate(1041 453)"><circle class="q" cx="14" cy="14" r="14"/><circle class="r" cx="14" cy="14" r="13.5"/></g><text class="d" transform="translate(1189 452)"><tspan x="-76.328" y="0">2 unidades</tspan><tspan class="e" y="0" xml:space="preserve"> | 120 doses</tspan><tspan class="e"><tspan x="-98.68" y="20">de R$400 por </tspan><tspan class="f" y="20">R$370</tspan><tspan y="20" xml:space="preserve"> |</tspan><tspan class="f" y="20" xml:space="preserve"> 7% OFF</tspan></tspan><tspan class="g"><tspan x="-72.608" y="40">você economiza </tspan><tspan class="f" y="40">R$30</tspan></tspan></text><g class="ad" transform="matrix(1, 0, 0, 1, 621, 204)"><g class="h" transform="translate(400 311)"><rect class="q" width="300" height="72" rx="6"/><rect class="r" x="0.5" y="0.5" width="299" height="71" rx="5.5"/></g></g><g class="i" transform="translate(1041 537)"><circle class="q" cx="14" cy="14" r="14"/><circle class="r" cx="14" cy="14" r="13.5"/></g><text class="d" transform="translate(1189 536)"><tspan x="-76.328" y="0">3 unidades</tspan><tspan class="e" y="0" xml:space="preserve"> | 180 doses</tspan><tspan class="e"><tspan x="-102.904" y="20">de R$600 por </tspan><tspan class="f" y="20">R$510 </tspan><tspan y="20">| </tspan><tspan class="f" y="20">15% OFF</tspan></tspan><tspan class="g"><tspan x="-72.608" y="40">você economiza </tspan><tspan class="f" y="40">R$90</tspan></tspan></text><g class="ac" transform="matrix(1, 0, 0, 1, 621, 204)"><g class="c" transform="translate(400 395)"><rect class="q" width="300" height="72" rx="6"/><rect class="r" x="0.5" y="0.5" width="299" height="71" rx="5.5"/></g></g><g class="c" transform="translate(1041 621)"><circle class="q" cx="14" cy="14" r="14"/><circle class="r" cx="14" cy="14" r="13.5"/></g><text class="d" transform="translate(1189 620)"><tspan x="-76.328" y="0">4 unidades</tspan><tspan class="e" y="0" xml:space="preserve"> | 240 doses</tspan><tspan class="e"><tspan x="-102.904" y="20">de R$800 por </tspan><tspan class="f" y="20">R$620</tspan><tspan y="20" xml:space="preserve"> | </tspan><tspan class="f" y="20">22% OFF</tspan></tspan><tspan class="g"><tspan x="-76.832" y="40">você economiza </tspan><tspan class="f" y="40">R$180</tspan></tspan></text><circle class="j" cx="9" cy="9" r="9" transform="translate(1046 542)"/><g class="ab" transform="matrix(1, 0, 0, 1, 621, 204)"><g class="c" transform="translate(592 38)"><rect class="q" width="110" height="60" rx="6"/><rect class="r" x="0.5" y="0.5" width="109" height="59" rx="5.5"/></g></g><g class="i" transform="translate(1233 258)"><circle class="q" cx="14" cy="14" r="14"/><circle class="r" cx="14" cy="14" r="13.5"/></g><text class="k" transform="translate(1288 277)"><tspan x="-8.672" y="0">Pó</tspan></text><g class="aa" transform="matrix(1, 0, 0, 1, 621, 204)"><g class="h" transform="translate(400 38)"><rect class="q" width="170" height="60" rx="6"/><rect class="r" x="0.5" y="0.5" width="169" height="59" rx="5.5"/></g></g><g class="i" transform="translate(1041 258)"><circle class="q" cx="14" cy="14" r="14"/><circle class="r" cx="14" cy="14" r="13.5"/></g><text class="k" transform="translate(1127 277)"><tspan x="-42.096" y="0">Comprimido</tspan></text><circle class="j" cx="9" cy="9" r="9" transform="translate(1046 263)"/><g class="z" transform="matrix(1, 0, 0, 1, 621, 204)"><g class="l" transform="translate(21 41)"><rect class="q" width="221" height="30" rx="4"/><rect class="r" x="0.5" y="0.5" width="220" height="29" rx="3.5"/></g></g><g class="y" transform="matrix(1, 0, 0, 1, 621, 204)"><rect class="m" width="289" height="30" rx="4" transform="translate(21 83)"/></g><g class="x" transform="matrix(1, 0, 0, 1, 621, 204)"><rect class="m" width="297" height="30" rx="4" transform="translate(21 125)"/></g><g class="w" transform="matrix(1, 0, 0, 1, 621, 204)"><rect class="m" width="296" height="30" rx="4" transform="translate(22 167)"/></g><g class="v" transform="matrix(1, 0, 0, 1, 621, 204)"><rect class="m" width="259" height="30" rx="4" transform="translate(21 251)"/></g><g class="u" transform="matrix(1, 0, 0, 1, 621, 204)"><rect class="m" width="266" height="30" rx="4" transform="translate(21 293)"/></g><g class="t" transform="matrix(1, 0, 0, 1, 621, 204)"><rect class="m" width="266" height="30" rx="4" transform="translate(22 335)"/></g><g class="s" transform="matrix(1, 0, 0, 1, 621, 204)"><rect class="m" width="187" height="30" rx="4" transform="translate(21 209)"/></g><text class="n" transform="translate(753 265)"><tspan x="-98.547" y="0">COMPR. | 1 UNID. | 60 DOSES</tspan></text><text class="o" transform="translate(787 307)"><tspan x="-134.207" y="0">COMPR. | 2 UNID. | 120 DOSES | 7% OFF</tspan></text><text class="o" transform="translate(791 349)"><tspan x="-138.1" y="0">COMPR. | 3 UNID. | 180 DOSES | 15% OFF</tspan></text><text class="o" transform="translate(791 391)"><tspan x="-138.1" y="0">COMPR. | 4 UNID. | 240 DOSES | 22% OFF</tspan></text><text class="o" transform="translate(772 475)"><tspan x="-116.32" y="0">PÓ | 2 UNID. | 120 DOSES | 7% OFF</tspan></text><text class="o" transform="translate(775 517)"><tspan x="-120.213" y="0">PÓ | 3 UNID. | 180 DOSES | 15% OFF</tspan></text><text class="o" transform="translate(776 559)"><tspan x="-120.213" y="0">PÓ | 4 UNID. | 240 DOSES | 22% OFF</tspan></text><text class="o" transform="translate(736 433)"><tspan x="-80.661" y="0">PÓ | 1 UNID. | 60 DOSES</tspan></text><g class="p" transform="translate(621 204)"><rect class="q" width="340" height="387" rx="6"/><rect class="r" x="0.5" y="0.5" width="339" height="386" rx="5.5"/></g><g class="p" transform="translate(1001 204)"><rect class="q" width="340" height="488" rx="6"/><rect class="r" x="0.5" y="0.5" width="339" height="487" rx="5.5"/></g></g></svg>