<?xml version="1.0" encoding="utf-8"?>
<!-- Generator: Adobe Illustrator 26.0.1, SVG Export Plug-In . SVG Version: 6.00 Build 0)  -->
<svg version="1.2" baseProfile="tiny" id="Layer_1" xmlns="http://www.w3.org/2000/svg" xmlns:xlink="http://www.w3.org/1999/xlink"
	 x="0px" y="0px" viewBox="0 0 64 64" overflow="visible" xml:space="preserve">
<g>
	<g>
		<g>
			<circle fill="#039FC7" cx="32" cy="32" r="45.3"/>
			<path fill="#F6FBFC" d="M38.4,16.1c0.3-2.8-0.9-4.2-3.5-4.4c-1.5-0.1-2.8,0.3-4.1,1.1c-1,0.7-1.5,0.5-2-0.8
				c0.1-0.5,0.5-0.8,0.9-1.1c2.6-1.6,5.3-1.8,8.1-0.7c2,0.8,2.9,2.3,2.9,4.4c0,2.6,0,5.2,0,7.8c0,0.7,0,1.3,0.5,1.8
				c0.6,0.6,0.8,1.3,0,1.9c-0.8,0.5-1.4,0.1-1.9-0.6c-0.2-0.3-0.3-0.5-0.5-0.9c-2.1,1.5-4.4,2-6.9,1.5c-2.1-0.5-3.6-1.7-4.1-3.9
				c-0.7-2.9,1.1-5.2,4.3-5.7c1.4-0.2,2.8-0.2,4.2-0.3C37,16.5,37.7,16.4,38.4,16.1z"/>
			<path fill="#F6FBFC" d="M29.1,47.2c1.3,1.8,2.4,3.5,3.7,5.2c0.5,0.6,0.9,1.3,0.1,1.9c-0.9,0.6-1.4,0-1.9-0.7
				c-1.4-2.1-2.9-4.2-4.3-6.2c-1.2,0-2.2,0-3.4,0c0,1.9,0,3.7,0,5.5c0,0.8,0,1.6-1,1.6c-1.1,0-1.2-0.8-1.2-1.6c0-4.6,0-9.3,0-13.9
				c0-0.3,0-0.6,0.1-1c2.8,0.1,5.5-0.3,8.2,0.3c2.1,0.5,3.3,1.8,3.4,3.8c0.2,2.2-0.8,3.9-2.8,4.7C29.7,46.9,29.5,47,29.1,47.2z"/>
			<path fill="#F6FBFC" d="M14.4,49.7c-2.5,0-5,0-7.6,0c-0.6,1.3-1.2,2.7-1.8,4c-0.3,0.7-0.9,0.9-1.5,0.6c-0.6-0.3-0.7-0.9-0.4-1.5
				c0.1-0.2,0.2-0.4,0.3-0.7c2.1-4.7,4.1-9.4,6.2-14.2c0.7,0,1.4,0,2.2,0c1.6,3.6,3.1,7.2,4.7,10.9c0.5,1.2,1.1,2.5,1.6,3.7
				c0.5,1.3,0.1,1.9-1.5,1.7C15.6,53,15.3,51.2,14.4,49.7z"/>
			<path fill="#F6FBFC" d="M58.9,41.1c-0.5-0.1-0.8-0.4-1.2-0.6c-1.3-0.7-2.7-0.8-4.2-0.4c-1.3,0.4-2,1.3-2,2.4
				c0.1,1.2,0.9,1.7,2,2.1c1.7,0.5,3.5,0.7,5.1,1.5c2.9,1.5,3.3,5,0.7,7.1c-0.2,0.2-0.5,0.3-0.7,0.5c-2.4,1.4-6.4,1.2-8.6-0.5
				c-0.6-0.5-1.2-1-0.5-1.8c0.6-0.7,1.2-0.5,1.8,0c1.7,1.3,3.7,1.6,5.7,0.8c1-0.4,1.7-1,1.8-2.1c0-1.2-0.7-1.7-1.7-2.2
				c-1.3-0.6-2.7-0.7-4-1.1c-2.6-0.8-3.7-1.9-3.7-3.9c0-2.1,1.4-3.9,3.7-4.6c2.1-0.6,4.2-0.3,6.1,0.8c0.5,0.3,0.9,0.6,0.8,1.3
				C59.8,40.8,59.4,41,58.9,41.1z"/>
			<path fill="#F6FBFC" d="M24,13.5c-0.6-0.1-0.9-0.5-1.4-0.7c-2.6-1.6-5.9-1.1-7.9,1.2c-2.1,2.5-2,6,0.2,8.4
				c2.1,2.3,5.4,2.6,7.9,0.9c0.6-0.5,1.3-0.9,1.9-0.1c0.7,0.9-0.1,1.4-0.7,1.9c-3.4,2.3-8.2,1.7-10.9-1.4c-2.9-3.2-2.8-8,0.1-11.2
				c2.8-3.1,7.6-3.6,11-1.3c0.5,0.3,1,0.7,0.9,1.4C25,13.1,24.6,13.4,24,13.5z"/>
			<path fill="#F6FBFC" d="M4.2,31.9c0.3-0.8,1-0.6,1.5-0.6c8,0,16,0,24,0c9.6,0,19.1,0,28.7,0c0.6,0,1.3-0.3,1.5,0.7
				c-0.3,0.8-0.9,0.5-1.5,0.5c-11,0-21.9,0-32.9,0c-6.6,0-13.2,0-19.8,0C5.1,32.5,4.5,32.7,4.2,31.9z"/>
			<path fill="#F6FBFC" d="M47.3,24c2.7,0.4,5.3-0.3,7.9,0.4c0.2,0.1,0.3,0.4,0.4,0.6c-0.1,0.8-0.5,1.2-1.1,1.2c-3.1,0-6.1,0-9.3,0
				c0-0.3-0.1-0.5-0.1-0.7c0-4.8,0-9.5,0-14.3c0-0.8,0.1-1.6,1.1-1.6c1,0,1.1,0.8,1.1,1.6c0,3.8,0,7.5,0,11.3
				C47.3,23.1,47.3,23.6,47.3,24z"/>
			<path fill="#F6FBFC" d="M42.3,40.1c0,4.2,0,8.2,0,12.2c0,0.3,0,0.7,0,1c0,0.8-0.4,1.3-1.2,1.2c-0.8,0-1-0.6-1-1.3
				c0-2.8,0-5.6,0-8.4c0-1.5,0-3.1,0-4.8c-1.3,0-2.5,0-3.6,0c-0.8,0-1.4-0.3-1.4-1.1c0-0.8,0.6-1.1,1.4-1.1c3.2,0,6.3,0,9.5,0
				c0.7,0,1.4,0.2,1.3,1.1c0,0.8-0.6,1.1-1.4,1.1C44.8,40.1,43.6,40.1,42.3,40.1z"/>
			<path fill="#039FC7" d="M38.5,18.2c0,1.6,0,3,0,4.5c-1.8,1.5-3.8,2-6.1,1.5c-1.7-0.4-2.5-1.6-2.4-3.2c0.1-1.4,1.1-2.2,2.8-2.3
				C34.6,18.6,36.5,18.6,38.5,18.2z"/>
			<path fill="#039FC7" d="M23.2,45.3c0-1.8,0-3.4,0-5.2c1.8,0,3.7-0.2,5.4,0.2c1.3,0.3,1.8,1.2,1.8,2.4c0,1.3-0.6,2-1.9,2.3
				C26.9,45.5,25.1,45.2,23.2,45.3z"/>
			<path fill="#039FC7" d="M7.8,47.5c1-2.2,1.9-4.3,2.9-6.6c1,2.3,1.9,4.4,2.8,6.6C11.6,47.5,9.8,47.5,7.8,47.5z"/>
		</g>
	</g>
	
		<ellipse transform="matrix(0.9989 -4.646784e-02 4.646784e-02 0.9989 -1.4333 1.5211)" fill="#FDFEFE" cx="32" cy="31.6" rx="51.5" ry="51.5"/>
	<path fill="#00A9C4" d="M63.5,31.1c0.2,0.8-0.1,1.1-0.7,1.2c-0.4,0-0.8,0-1.1,0c-19.8,0-39.6,0-59.4,0c-0.7,0-1.8,0.4-1.9-1.2
		C21.4,31.1,42.5,31.1,63.5,31.1z"/>
	<path fill="#00A9C4" d="M36,17.2c0.3-2.5-1-3.7-3.4-3.5c-0.9,0.1-1.8,0.4-2.6,0.9c-0.5,0.3-1,0.5-1.4-0.1c-0.4-0.6-0.1-1,0.4-1.4
		c1.9-1.5,5.7-1.5,7.6-0.1c1,0.8,1.4,1.9,1.4,3.1c0,1.9,0,3.9,0,5.8c0,0.6-0.1,1.2,0.3,1.7c0.5,0.5,0.7,1.2,0,1.6
		c-0.8,0.5-1.2-0.1-1.6-0.6c-0.1-0.1-0.2-0.3-0.3-0.4c-1.9,1.1-3.9,1.6-6,1c-1.9-0.6-3-2.2-2.9-4.2c0.1-1.8,1.2-2.9,3.3-3.4
		C32.5,17.3,34.3,17.8,36,17.2z"/>
	<path fill="#00A9C4" d="M23.2,39.2c2.2,0,4.2-0.1,6.1,0c1.9,0.1,3,1.2,3.2,2.8c0.3,1.8-0.3,3.1-2,4c-0.2,0.1-0.5,0.3-0.8,0.4
		c1.1,1.6,2.2,3.2,3.3,4.8c-0.5,1.2-1.2,1.4-1.9,0.3c-1.2-1.6-2.3-3.3-3.5-4.9c-0.8,0-1.7,0-2.7,0c0,1.6,0,3,0,4.5
		c0,0.6-0.3,1.1-1,1.1c-0.6,0-0.9-0.4-0.9-1C23.2,47.3,23.2,43.3,23.2,39.2z"/>
	<path fill="#00A9C4" d="M12.7,39.2c0.6,0,1.1,0,1.8,0c1.7,3.9,3.4,7.8,5,11.8c0.2,0.5,0.2,1-0.3,1.2c-0.6,0.3-1.1,0-1.3-0.6
		c-0.4-1-0.8-2-1.3-3c-2,0-4,0-6.1,0c-0.4,0.9-0.9,1.8-1.3,2.8c-0.3,0.6-0.6,1.1-1.3,0.8c-0.7-0.3-0.5-0.9-0.3-1.4
		C9.3,47,11,43.1,12.7,39.2z"/>
	<path fill="#00A9C4" d="M48.3,49.2c1.3,0.9,2.6,1.6,4.2,1.3c1.2-0.2,2.3-0.5,2.4-1.9c0.1-1.3-0.9-1.7-1.9-2
		c-1.1-0.3-2.2-0.6-3.3-0.9c-1.3-0.4-2.1-1.3-2.3-2.6c-0.1-1.3,0.4-2.4,1.5-3.2c1.7-1.3,4.7-1.3,6.4-0.1c0.4,0.3,0.9,0.7,0.6,1.3
		c-0.4,0.6-0.9,0.5-1.4,0.2c-1.1-0.7-2.3-0.8-3.6-0.5c-0.9,0.3-1.6,0.7-1.6,1.8c0,1,0.7,1.4,1.5,1.7c1.2,0.4,2.5,0.6,3.7,1.1
		c1.3,0.5,2.2,1.3,2.3,2.8c0.1,1.6-0.7,2.7-2,3.4c-1.9,1.1-5,0.9-6.8-0.4C47.1,50.5,47,49.9,48.3,49.2z"/>
	<path fill="#00A9C4" d="M24.1,14.3c-0.5,1.2-1.2,0.8-2,0.4c-2.4-1.4-5.2-0.9-6.7,1.4c-1.4,2.1-1,5,1.1,6.7c1.7,1.3,3.7,1.5,5.7,0.2
		c0.8-0.5,1.4-0.7,1.8,0.4c-1.3,1.9-3.9,2.7-6.5,1.9c-2.7-0.8-4.7-3.4-4.8-6.2c-0.1-2.9,1.8-5.6,4.6-6.6
		C19.9,11.6,22.6,12.3,24.1,14.3z"/>
	<path fill="#00A9C4" d="M39.5,40.8c-1.2,0-2.2,0-3.1,0c-0.5,0-1-0.3-0.9-0.9c0-0.5,0.4-0.8,0.9-0.8c2.9,0,5.8,0,8.7,0
		c0.2,1.5,0.2,1.5-3.7,1.8c0,2.9,0,5.8,0,8.7c0,0.5,0,1,0,1.5c0,0.7-0.2,1.2-0.9,1.2c-0.8,0-0.9-0.6-0.9-1.2c0-3,0-5.9,0-8.9
		C39.5,41.8,39.5,41.4,39.5,40.8z"/>
	<path fill="#00A9C4" d="M45.3,12.4c0,3.7,0,7.4,0,11.2c1.8,0,3.5,0,5.2,0c0.7,0,1.4,0.1,1.4,0.9c0,0.8-0.7,0.8-1.4,0.8
		c-2.3,0-4.5,0-6.8,0c-0.4-1.2-0.2-2.5-0.2-3.7c0-2.7,0-5.4,0-8.1C43.5,12.5,43.8,11.9,45.3,12.4z"/>
	<path fill="#FDFEFE" d="M36.1,18.9c0.5,3.9-1.6,5.9-5,4.8c-1.1-0.4-1.8-1.1-1.8-2.4c0-1.3,0.9-1.8,2-2C32.8,19,34.4,19.4,36.1,18.9
		z"/>
	<path fill="#FDFEFE" d="M25.1,44.9c0-1.4,0-2.6,0-4c1.4-0.3,2.7-0.2,4.1,0c1,0.1,1.6,0.8,1.6,1.9c0,1.1-0.5,1.7-1.6,1.9
		C28,45.1,26.6,44.9,25.1,44.9z"/>
	<path fill="#FDFEFE" d="M15.8,46.7c-1.5,0-2.9,0-4.5,0c0.8-1.8,1.4-3.3,2.2-5.2C14.4,43.4,15.1,45,15.8,46.7z"/>
</g>
</svg>
