<svg id="Layer_1" data-name="Layer 1" xmlns="http://www.w3.org/2000/svg" viewBox="0 0 64 64"><defs><style>.cls-1{fill:#fff;}.cls-2{fill:#fcfcfc;}.cls-3{fill:#3d5763;}.cls-4{fill:#b11219;}</style></defs><rect class="cls-1" width="64" height="64"/><path class="cls-2" d="M2,65V1H173.91q0,32,0,64Z"/><path class="cls-3" d="M30.37,11.82H45.19L47,5.21h3.6L48.05,15.45H33.6c-3.4,12.64-6.76,25.16-10.15,37.76H9c3.34-12.47,6.67-24.88,10.08-37.6H6.37L8.94,5.15H12.6l-1.46,6.62h13.3L14.3,49.47h5.88Z"/><path class="cls-3" d="M60,48V16.06H80.71v5H65.77v8.55H79.25v5.11H65.76V48Z"/><path class="cls-4" d="M53.5,22H39c-3.38,12.55-6.74,25-10.13,37.57H14.47l1-3.48H25.55C29,43.46,32.39,30.9,35.84,18.21H50.7L52.33,12h3.59C55.1,15.35,54.31,18.62,53.5,22Z"/><rect class="cls-1" x="57" y="14" width="115" height="50"/></svg>