<svg id="Layer_1" data-name="Layer 1" xmlns="http://www.w3.org/2000/svg" viewBox="0 0 64 64"><defs><style>.cls-1{fill:#454545;}.cls-2{fill:#fcfcfc;}</style></defs><path class="cls-1" d="M31.89,59.87a27.94,27.94,0,1,1,28-27.34A27.93,27.93,0,0,1,31.89,59.87ZM59.08,31.93A27.15,27.15,0,1,0,32,59.09,27.17,27.17,0,0,0,59.08,31.93Z"/><path class="cls-2" d="M59.08,31.93A27.15,27.15,0,1,1,32,4.77,27.16,27.16,0,0,1,59.08,31.93ZM18.69,11.14l-.11.39c-.48.5-.21,1,.12,1.36a1,1,0,0,0,1.46.23c.07,0,.13,0,.13-.11s-.18,0-.11.12c-1.1-.12-1.41-.44-1.62-1.61.15-.1.27-.2.12-.39.18.21.27,0,.37-.09a1.23,1.23,0,0,1,1.16.53,2,2,0,0,1,.32,1.18,1.18,1.18,0,0,0-.22-1.63.84.84,0,0,0-1.25-.06Zm-3,2.47c.11,0,.25,0,.33-.11s-.09-.2-.21-.16-.18.15-.1.29c-.13,0-.18,0-.17.16-.3,0-.42.16-.54.34a5.12,5.12,0,0,1,1.45,1.69l0,.06v-.07c.35.12.42-.22.52-.3-.57-.5-1.26-.89-1.44-1.74ZM13,20.16l-.44-.2a1.16,1.16,0,0,0,.26.62c.15-.13.34-.22.17-.44.09.1.11,0,.12-.05ZM54.1,29a.34.34,0,0,0-.15-.33c.06-1,.69-1.35,1.88-1.07,0,.08.07.19.21.07l-.1-.18a1.17,1.17,0,0,0-.61-.34A1.25,1.25,0,0,0,54,27.6c-.22.31-.43.66,0,1,0,.14-.11.3.12.37a1,1,0,0,0,1.27.45,1,1,0,0,0,.84-1A1.66,1.66,0,0,1,54.1,29ZM44,13.29c.07.22.23.14.37.11a.94.94,0,0,0,1.36-.22,1.06,1.06,0,0,0-.13-1.59c.25,1.1-.23,1.8-1.24,1.83-.1-.09-.2-.18-.34-.15a1.49,1.49,0,0,1,.1-1.36,1.64,1.64,0,0,1,1.21-.65,1.24,1.24,0,0,0-1.6.58A1,1,0,0,0,44,13.29ZM10,20.88c-.08.07-.13.14-.08.25-.27.16-.28.44-.38.61a6.7,6.7,0,0,1,2.12,1.06.5.5,0,0,0,.14-.59h.07l-.06,0c-.36,0-.69,0-.78-.47.4-.34,1.13.09,1.43-.6-.45-.05-.84.27-1.26.08-.16-.17-.14-.46-.4-.59S10.21,20.52,10,20.88Zm42.81.25.44,0L52,22.45c.09.19.08.46.27.49.48-.72,1.14-1.22,1.73-2-.5,0-.87-.11-1.21.15H51.38l.2.44c.36-.42.71-.36,1.09,0C52.61,21.36,52.74,21.25,52.82,21.13Zm-21-11.54c.38,0,.37-.28.43-.47-.09-.66-.76-.67-1-1a.7.7,0,0,1,.1-.68c-.66.47-.66.81,0,1.21.41.25.68.49.47,1-.4.08-.74,0-1-.6,0,.47,0,.65.33.76C31.37,9.64,31.67,9.92,31.85,9.59ZM42,12l0,.08L42,12a.42.42,0,0,1,0-.58c.38-.44.39-1.06.83-1.5l-.44-.21a5.76,5.76,0,0,1-1.07,2.09C41.51,11.87,41.69,12.07,42,12ZM27.2,9.91c-.34.09-.59.48-1,.27a9.47,9.47,0,0,1-.45-2c-.19,0-.37,0-.48.14a6.53,6.53,0,0,1,.56,2.25c.5-.18,1.1-.08,1.43-.63.61-.35.47-.87.27-1.37S26.94,8,26.33,8.1C27.22,8.47,27.3,8.63,27.2,9.91Zm-13.44,9a17,17,0,0,0-2.45-.46l1.08,1.48c.12-.34.18-.65.46-.82a.61.61,0,0,1,.71.37c.17-.23.38-.35.19-.59.09.1.11,0,.13-.05Zm-2.71,5.3c-.18,0-.13.3-.39.3a2,2,0,0,1-.7-.28c-.08-.36.18-.48.35-.64a.29.29,0,0,0-.43-.13.84.84,0,0,1-.21.73L9,23.83c-.08-.43.18-.64.49-.83A.38.38,0,0,0,9,23a6.44,6.44,0,0,0-.36,1.23,4.8,4.8,0,0,1,2.16.92c.07-.33.27-.61.22-.94.2-.28.43-.57-.13-.73C11.13,23.66,11,23.93,11.05,24.18Zm11.87-15c-.27-.14-.4.06-.54.19.55.3.6.86.83,1.37-.9-.07-1.45-1-2.38-.71.47.09.38.63.71.85l.11-.37c.71.19,1.27.72,2,.84-.12-.8-.78-1.36-.72-2.18l0-.06Zm13.18,0c.1-.05.11-.1,0-.16l0,.15c.22.28.09.53,0,.77-.85,0-1.2-.35-1.18-1.07s.46-1.07,1.36-1c.24.09.3.37.51.52l.05-.49c-.69-.26-1.37-.43-2,.13a1.14,1.14,0,0,0-.21,1.41c.39.71,1.09.73,1.84.67a1.49,1.49,0,0,1,.29-.95C36.49,9.11,36.29,9,36.1,9.16ZM24.74,53c-.2-.18-.25-.5-.57-.65a1.71,1.71,0,0,0,0,.9l.42-.08c1.12.36,1.59,0,1.46-1-.3-.62-1.2-.37-1.44-1.07a.49.49,0,0,1,.47-.36c.43,0,.56.37.83.62.21-.36,0-.59,0-.84-1.56,0-1.65.07-1.67.81.18,1,1.3.61,1.5,1.42A.66.66,0,0,1,24.74,53ZM20.18,33.28c-.11.28.11.3.28.36A7.07,7.07,0,0,0,22.64,35a4,4,0,0,1,1.64,1.43,26.64,26.64,0,0,0-2.92.11c-.2-.38.17-.65,0-1a12.71,12.71,0,0,0-5-.3,8,8,0,0,0,0,3.9,10.27,10.27,0,0,1,4.7-.63l.07-1.38a15.8,15.8,0,0,1,4.25.89l-.83.55c-.29,0-.36-.36-.64-.29a4.41,4.41,0,0,0-1.73,1.88c.52.32.87.84,1.41,1.26a9.17,9.17,0,0,1,1.81-2l-.54-.6a3.18,3.18,0,0,1,1.31-.51c.31.14.63.27.93.44a4.37,4.37,0,0,1,2.51,3.63,14.34,14.34,0,0,1-.11,2.46c-.13,1.21-.61,1.59-1.84,1.59h-9.2a1.89,1.89,0,0,0-.88.07c0,.61.5.36.76.36H45.94c.25,0,.31-.15.22-.45H35.09a3.57,3.57,0,0,1-1.28-2.69,2.3,2.3,0,0,0,.46-2.9c1.24-2.37,2.56-3,4.55-2.47,0,.31-.38.5-.26.92a7,7,0,0,1,2.24,1.15,8.94,8.94,0,0,1,.82-1.67,4.32,4.32,0,0,0-2.2-1.21c-.35.08-.28.4-.52.51l-1.28-.21A8.57,8.57,0,0,1,42.39,37c.08.57-.27,1-.21,1.54a5.76,5.76,0,0,1,2.39.25c.77.21,1.52.45,2.3.69a14.19,14.19,0,0,1,.62-3.31,8.38,8.38,0,0,0-4.74-1.07c-.11.51,0,1-.31,1.42a25,25,0,0,0-3.59-.16,3.38,3.38,0,0,1,.8-1.87l.77,1.06a10.33,10.33,0,0,1,4.29-2.2,8.22,8.22,0,0,0-2.27-3.2,13.93,13.93,0,0,0-3.93,3.08c.33.36.73.56.9,1a4,4,0,0,0-1.66,2.3c-.91,0-1.67.52-2.55.6h0c0-.92.07-1.86.17-2.78a5.09,5.09,0,0,1,1.27-2.6l.72.68a13.62,13.62,0,0,1,1.85-1.95,6.94,6.94,0,0,1-1.4-1.2,4.34,4.34,0,0,0-1.77,1.82c0,.27.24.25.15.49l-1.15.87a12.58,12.58,0,0,0-1.47-3.61l1.05-.59a16.23,16.23,0,0,0-3.14-4.57A7.66,7.66,0,0,0,28,26.37a11.88,11.88,0,0,1,3.85,3.68c.54-.29.82-.8,1.37-.92,1.17,4.07.54,7.82-1.55,9.14l-1.17-3.4.78-1.31c.33,0,.52.28.85.19a5.13,5.13,0,0,0,.93-2.66c-.68-.12-1.26-.52-1.94-.7a8.81,8.81,0,0,1-.91,2.66l.67.31a1.78,1.78,0,0,1-.75.89,10.7,10.7,0,0,0-1.76-2l1.12-.75a8.56,8.56,0,0,0-3-3.82,13,13,0,0,1-2.77,1.95,13.2,13.2,0,0,1,2.93,3.89l1.28-1a7.5,7.5,0,0,1,1.72,5.43l-1.29-.51L28,36.27c.09-.31.47-.13.49-.47-.2-.58-.13-1.29-.58-1.85a2.83,2.83,0,0,0-1.6.55,5.56,5.56,0,0,1,1,1.79c.23.06.38-.17.58,0,.1.31.27.61.09,1l-2.11-.56a4.22,4.22,0,0,0-2.6-2l-.4-1.05c-.12.31,0,.61-.15.89a8.06,8.06,0,0,1-2.09-.9.72.72,0,0,0-.41-.24c.2-.54.84-.2,1.14-.6a14.27,14.27,0,0,1-1.15-4.48,24.15,24.15,0,0,1-3.43,1.39,9.14,9.14,0,0,1,1.94,4.2C19.21,33.62,19.62,33.21,20.18,33.28Zm15.2-3.82A15.52,15.52,0,0,0,36.56,27c.32.06.53.32.86.25A9,9,0,0,1,39.24,23,17.11,17.11,0,0,1,35.7,21.8a14.58,14.58,0,0,1-1,4.56c.37.17.8.12,1.13.41a2.93,2.93,0,0,1-.07.93,12.11,12.11,0,0,0-.37,1.77l-.08,0Zm16.69,4.39a15.43,15.43,0,0,1-1.24-3.73,14.15,14.15,0,0,1-5.27,1.72,15.87,15.87,0,0,1,1.24,3.75A22.18,22.18,0,0,1,52.07,33.85ZM29.55,23.31c.19-.42,0-.81.1-1.18L31,21.54a14.28,14.28,0,0,0-2.36-4.39,6.2,6.2,0,0,0-3.35,2.12,10.39,10.39,0,0,1,3,3.67l.9-.53C29.41,22.64,29.41,22.94,29.55,23.31Zm-5.07,4a11.2,11.2,0,0,1-1.43-5.18,18.11,18.11,0,0,1-4,1.38A16.15,16.15,0,0,1,21.4,28.4,9.67,9.67,0,0,1,24.48,27.33Zm14.85-.19a9,9,0,0,1,1.34,1.12c-.16.52-.59.92-.64,1.61a8.45,8.45,0,0,1,1.18-1.39l.69,1A9,9,0,0,0,45,25.62a16,16,0,0,1-2.57-2.23A11.86,11.86,0,0,1,39.33,27.14Zm4.88,1.42a8.15,8.15,0,0,1,2.28,2.29,15.46,15.46,0,0,1,4.19-3.29,15.9,15.9,0,0,1-3-3A10.1,10.1,0,0,1,44.21,28.56ZM32.47,13.62a8.57,8.57,0,0,0-3.79.78,9.56,9.56,0,0,1,1.62,4.29c.52-.1,1-.21,1.46-.27s1-.06,1.48-.09A9.51,9.51,0,0,0,32.47,13.62Zm8.45,9.3a12.12,12.12,0,0,1,1.46-4.64,11.38,11.38,0,0,1-3.29-1,20.26,20.26,0,0,1-1.41,4.61A17,17,0,0,1,40.92,22.92ZM11.81,34.3a13.59,13.59,0,0,1,4.84.53,11.86,11.86,0,0,1,.29-3.43A22.29,22.29,0,0,1,12.17,31,14.76,14.76,0,0,1,11.81,34.3Zm25.94-18c-1.84-.46-2.3-.48-3.26-.13a10.08,10.08,0,0,0,0,4.13,5.81,5.81,0,0,1,2.45-.13A8.27,8.27,0,0,1,37.75,16.25ZM16.42,23a12.75,12.75,0,0,1-1.92,1.75,10.88,10.88,0,0,1,2.56,2.73l1-.9c.33-.3.67-.59,1-.88A6.06,6.06,0,0,0,16.42,23ZM8.71,34c-1.14,3,3.87,13.22,7.44,15.16a22,22,0,0,0-1.72-2,28.87,28.87,0,0,1-1.77-2.35,23.39,23.39,0,0,1-1.44-2.47c-.42-.86-.78-1.75-1.13-2.63a25.47,25.47,0,0,1-.8-2.84A18.38,18.38,0,0,0,8.71,34Zm39,15.19c3.84-2.56,8.45-12,7.39-15a33.42,33.42,0,0,0-.72,3.3,26.7,26.7,0,0,1-1,3.25,28.37,28.37,0,0,1-1.56,3.12,27.16,27.16,0,0,1-2,2.81A20.74,20.74,0,0,0,47.75,49.14Zm-25.42-32A15.46,15.46,0,0,1,20.6,19a9.84,9.84,0,0,1,2.53,2.41,18.85,18.85,0,0,1,1.64-1.81A6.69,6.69,0,0,0,22.33,17.13Zm22.77,2.7a9,9,0,0,0-1.42,3,6.23,6.23,0,0,1,1.72.83,7.82,7.82,0,0,1,2-2.51A5,5,0,0,0,45.1,19.83ZM25.85,26.14a6.8,6.8,0,0,1,1.8-1.1,11.65,11.65,0,0,1-1.48-3.17,9.81,9.81,0,0,1-2.3,1.45A6.9,6.9,0,0,1,25.85,26.14Zm8-6.18a13,13,0,0,1-2.23.46,9.69,9.69,0,0,1,.55,3.25,14.67,14.67,0,0,1,2.29-.52A17.47,17.47,0,0,1,33.87,20ZM21,52.83c-.15.23-.45.11-.45.43H23.7c0-.37.17-.73,0-1.14-.36.22-.34.66-.69.85a2.52,2.52,0,0,1-1.38-.08,5.85,5.85,0,0,1,0-1.51,1.52,1.52,0,0,1,.62,0c.35.14.24.51.56.58V50.51c-.33.06-.23.45-.48.52a1,1,0,0,1-.75,0,7.24,7.24,0,0,1,.05-1.39,3.25,3.25,0,0,1,1.13,0c.31.16.31.5.64.64a1.75,1.75,0,0,0,0-.88h-3c.06.32.44.15.49.42Zm21.58-1.18c-.54.63-1.53.65-1.79,1.64a21.88,21.88,0,0,0,2.59,0,.37.37,0,0,0,0-.43,12.68,12.68,0,0,1-1.69-.16c.7-.6,2.08-.67,1.51-2-1-.75-1.91-.55-2.27.51.12.27.31.34.54.19s0-.49.1-.72a.74.74,0,0,1,1,.06A1.16,1.16,0,0,1,42.55,51.65Zm-10.6,1c.36-.41.85-.44,1.2-.71a.9.9,0,0,0,0-1.58,1.61,1.61,0,0,0-1.71.16.59.59,0,0,0-.17.82c.78.17.36-.54.64-.78a.59.59,0,0,1,.93.12.82.82,0,0,1-.19,1.14c-.29.24-.64.39-.94.6s-.61.34-.55.82h2.53a.49.49,0,0,0-.06-.48h-.75A2.06,2.06,0,0,1,32,52.67Zm7,.67c.92,0,1.4-.51,1.42-1.52s-.48-1.6-1.42-1.6a1.56,1.56,0,0,0,0,3.12Zm-3.39,0a1.41,1.41,0,0,0,1.53-1.52,1.49,1.49,0,1,0-3-.06C34.1,52.76,34.6,53.31,35.56,53.32Zm-7.26-.18c-.25-.26-.54-.06-.76-.31A5,5,0,0,1,27.43,51c.24-.27.61,0,.74-.34-.15-.29-.52,0-.71-.31s.08-.5-.17-.7c-.35.22-.35.22-.45.75-.06.22-.39,0-.41.29s.34.08.41.23c.19.79-.2,1.62.29,2.32A1.43,1.43,0,0,0,28.3,53.14ZM23.53,33.27a6.26,6.26,0,0,1,.49-2c-.61-.08-1.17-.44-1.75,0a6.7,6.7,0,0,0,0,2h.74ZM39.3,10.15c-.65-.62-.47-1.71-1.35-2.09a3.05,3.05,0,0,1-.6,2.29.54.54,0,0,0,.47.14,2.9,2.9,0,0,1,.42-1.68L39.19,11c.45-.81.3-1.73,1-2.3a.45.45,0,0,0-.53,0A3,3,0,0,1,39.3,10.15ZM9.73,30.68c0-.31.13-.51,0-.67a2.45,2.45,0,0,1-1.68-.1A14.22,14.22,0,0,0,10,28.54l-2.34-.3-.05.21c.49.14,1.1-.11,1.6.3l-1.06.71c-.62.41-.62.41-.7.87A2.47,2.47,0,0,1,9.73,30.68ZM28.56,10c.52-.14,1.09,0,1.51-.39-.32.06-.62.32-1,.08a1.46,1.46,0,0,1-.1-.78c.25-.31.5-.07.73-.06,0-.18.09-.33-.06-.45a.71.71,0,0,1-.66.14.77.77,0,0,1-.1-.77c.29-.18.57,0,.84-.12a2.63,2.63,0,0,0-1.36,0A4.6,4.6,0,0,1,28.56,10ZM54,32.34a18.36,18.36,0,0,1,2.5,0c0-.17.07-.36-.1-.47-.47.36-1,.22-1.56.25.46-.72,1.23-1,1.5-1.75A17.19,17.19,0,0,0,54,32.34Zm.64-8.92a7.58,7.58,0,0,1-2,.62l.19.58a4,4,0,0,1,1.88-.81c.46.17.16.52.39.73a2.38,2.38,0,0,0-.65-1.89C54.43,22.92,54.85,23,54.66,23.42ZM8.32,26.07a.51.51,0,0,1,.43-.69.79.79,0,0,0-.55-.16c0,.42-.25.8-.18,1.08.77.35,1.58.19,2.18.77a.76.76,0,0,0,.16-.68A5.74,5.74,0,0,1,8.32,26.07ZM50,17.29c-.36.06-.42-.06-.38-.29.09-.5.16-1,.26-1.48.06-.32,0-.55-.34-.64.14.32-.19.47-.2.72.25.77-.21,1.52-.14,2.33A2.28,2.28,0,0,0,50,17.29ZM33.74,7.42a.86.86,0,0,0-.56.08A4.36,4.36,0,0,1,33,9.74c.22,0,.45.09.64,0A4.53,4.53,0,0,1,33.74,7.42ZM53.48,26.55a5.13,5.13,0,0,1,2.28-.62l-.14-.59a4.87,4.87,0,0,1-2.31.66ZM9.74,31.44a4.36,4.36,0,0,1-2.35,0,1.3,1.3,0,0,0,0,.54,4.81,4.81,0,0,1,2.36.14A1.12,1.12,0,0,0,9.74,31.44ZM46.42,14.57a2.76,2.76,0,0,1,1.3-1.42c-.14-.14-.21-.36-.45-.37-.3.67-1.08,1-1.19,1.87.18.31.3.71.85.71C46.73,15.1,46.46,15,46.42,14.57Zm-33.2,1.5c-.4.76-.34,1.22.22,1.64a1,1,0,0,0,1.39-.09C13.61,17.67,13.09,17.17,13.22,16.07Zm3.45-3.4a7.93,7.93,0,0,1,1.51,1.78.53.53,0,0,0,.37-.26,5.79,5.79,0,0,1-1.42-1.83A.92.92,0,0,0,16.67,12.67ZM52.16,18l-.33-.46a3.77,3.77,0,0,1-2.1,1.26c.33.12.26.5.54.56A3.57,3.57,0,0,1,52.16,18Zm.18,1.17a1.48,1.48,0,0,1-1.5.73c.64.37,1.15.34,1.53-.13a.94.94,0,0,0,0-1.37ZM28.82,52.69c-.09.61.14.7.6.52C29.56,52.66,29.32,52.57,28.82,52.69ZM21.6,11l.26,1.15.39-.14Zm26.62,5.9c0-.19.24-.31.27-.53l-.59.13Zm2.47-.67,0,.48.57-.05C51,16.43,50.93,16.22,50.69,16.18Zm-7.67-5a.49.49,0,0,0-.45-.07l.3.59C42.86,11.41,43.1,11.37,43,11.15ZM14.75,14.94c0-.17.06-.36-.11-.51C14.34,14.68,14.59,14.81,14.75,14.94Zm.48,2.34c.34-.27.39-.51,0-.78Zm-1.67-1.65a.92.92,0,0,0,.59,0C14,15.42,13.84,15.27,13.56,15.63Zm40.9,14.94-.3-.29a1,1,0,0,0,0,.69Zm-6-16.78c0,.22-.18.4,0,.6l.34-.27C48.73,14,48.66,13.86,48.44,13.79ZM7.86,26.72c-.1.58.16.47.41.47ZM32.13,7.88c0-.38,0-.6-.39-.47ZM43.4,10.66c.12-.17.44-.45-.1-.4Zm-3.9-2.1,0,0v0Zm10.9,8.32,0-.06-.06.05.08.07ZM49,15.94c0-.07-.1-.07-.15,0S48.92,16,49,15.94Zm-35.53-.15,0-.06-.05,0s0,0,.05.06Zm2.83-2.11-.05,0v0Z"/><path class="cls-1" d="M20.57,33.53a8.06,8.06,0,0,0,2.09.9c.19-.28,0-.58.15-.89l.4,1.05a4.22,4.22,0,0,1,2.6,2l2.11.56c.18-.35,0-.65-.09-1-.2-.12-.35.11-.58,0a5.56,5.56,0,0,0-1-1.79,2.83,2.83,0,0,1,1.6-.55c.45.56.38,1.27.58,1.85,0,.34-.4.16-.49.47l.43,1.15,1.29.51A7.5,7.5,0,0,0,28,32.5l-1.28,1a13.2,13.2,0,0,0-2.93-3.89,13,13,0,0,0,2.77-1.95,8.56,8.56,0,0,1,3,3.82l-1.12.75a10.7,10.7,0,0,1,1.76,2,1.78,1.78,0,0,0,.75-.89l-.67-.31a8.81,8.81,0,0,0,.91-2.66c.68.18,1.26.58,1.94.7a5.13,5.13,0,0,1-.93,2.66c-.33.09-.52-.2-.85-.19l-.78,1.31,1.17,3.4c2.09-1.32,2.72-5.07,1.55-9.14-.55.12-.83.63-1.37.92A11.88,11.88,0,0,0,28,26.37a7.66,7.66,0,0,1,3.48-2.68,16.23,16.23,0,0,1,3.14,4.57l-1.05.59a12.58,12.58,0,0,1,1.47,3.61l1.15-.87c.09-.24-.17-.22-.15-.49a4.34,4.34,0,0,1,1.77-1.82,6.94,6.94,0,0,0,1.4,1.2,13.62,13.62,0,0,0-1.85,1.95l-.72-.68a5.09,5.09,0,0,0-1.27,2.6c-.1.92-.13,1.86-.17,2.78l0,0s.11.11,0,0c.88-.08,1.64-.59,2.55-.6a4,4,0,0,1,1.66-2.3c-.17-.44-.57-.64-.9-1a13.93,13.93,0,0,1,3.93-3.08,8.22,8.22,0,0,1,2.27,3.2,10.33,10.33,0,0,0-4.29,2.2l-.77-1.06a3.38,3.38,0,0,0-.8,1.87,25,25,0,0,1,3.59.16c.31-.43.2-.91.31-1.42a8.38,8.38,0,0,1,4.74,1.07,14.19,14.19,0,0,0-.62,3.31c-.78-.24-1.53-.48-2.3-.69a5.76,5.76,0,0,0-2.39-.25c-.06-.52.29-1,.21-1.54a8.57,8.57,0,0,0-4.77.88l1.28.21c.24-.11.17-.43.52-.51a4.32,4.32,0,0,1,2.2,1.21,8.94,8.94,0,0,0-.82,1.67,7,7,0,0,0-2.24-1.15c-.12-.42.25-.61.26-.92-2-.58-3.31.1-4.55,2.47a2.3,2.3,0,0,1-.46,2.9,3.57,3.57,0,0,0,1.28,2.69H46.16c.09.3,0,.44-.22.45H18.41c-.26,0-.74.25-.76-.36a1.89,1.89,0,0,1,.88-.07h9.2c1.23,0,1.71-.38,1.84-1.59a14.34,14.34,0,0,0,.11-2.46,4.37,4.37,0,0,0-2.51-3.63c-.3-.17-.62-.3-.93-.44a3.18,3.18,0,0,0-1.31.51l.54.6a9.17,9.17,0,0,0-1.81,2c-.54-.42-.89-.94-1.41-1.26A4.41,4.41,0,0,1,24,38.28c.28-.07.35.32.64.29l.83-.55a15.8,15.8,0,0,0-4.25-.89l-.07,1.38a10.27,10.27,0,0,0-4.7.63,8,8,0,0,1,0-3.9,12.71,12.71,0,0,1,5,.3c.15.39-.22.66,0,1a26.64,26.64,0,0,1,2.92-.11A4,4,0,0,0,22.64,35a7.07,7.07,0,0,1-2.18-1.4Zm13,9.11c.62-.71.59-1.22-.08-1.48C33,41.91,33,42.26,33.52,42.64Zm-.83-1.51c.09-.08.32-.18.22-.42a1.73,1.73,0,0,0-.13.21A1.89,1.89,0,0,0,32.69,41.13Zm.45-.57c0,.07.09.07.14,0S33.19,40.5,33.14,40.56Z"/><path class="cls-1" d="M52.07,33.85a22.18,22.18,0,0,0-5.27,1.74,15.87,15.87,0,0,0-1.24-3.75,14.15,14.15,0,0,0,5.27-1.72A15.43,15.43,0,0,0,52.07,33.85Z"/><path class="cls-1" d="M29.55,23.31c-.14-.37-.14-.67-.38-.9l-.9.53a10.39,10.39,0,0,0-3-3.67,6.2,6.2,0,0,1,3.35-2.12A14.28,14.28,0,0,1,31,21.54l-1.31.59C29.55,22.5,29.74,22.89,29.55,23.31Z"/><path class="cls-1" d="M24.48,27.33A9.67,9.67,0,0,0,21.4,28.4,16.15,16.15,0,0,0,19,23.53a18.11,18.11,0,0,0,4-1.38A11.2,11.2,0,0,0,24.48,27.33Z"/><path class="cls-1" d="M39.33,27.14a11.86,11.86,0,0,0,3.09-3.75A16,16,0,0,0,45,25.62a9,9,0,0,1-3.09,3.87l-.69-1A8.45,8.45,0,0,0,40,29.87c0-.69.48-1.09.64-1.61A9,9,0,0,0,39.33,27.14Z"/><path class="cls-1" d="M44.21,28.56a10.1,10.1,0,0,0,3.52-4,15.9,15.9,0,0,0,3,3,15.46,15.46,0,0,0-4.19,3.29A8.15,8.15,0,0,0,44.21,28.56Z"/><path class="cls-1" d="M32.47,13.62a9.51,9.51,0,0,1,.77,4.71c-.49,0-1,0-1.48.09s-.94.17-1.46.27a9.56,9.56,0,0,0-1.62-4.29A8.57,8.57,0,0,1,32.47,13.62Z"/><path class="cls-1" d="M40.92,22.92a17,17,0,0,0-3.24-1.06,20.26,20.26,0,0,0,1.41-4.61,11.38,11.38,0,0,0,3.29,1A12.12,12.12,0,0,0,40.92,22.92Z"/><path class="cls-1" d="M11.81,34.3A14.76,14.76,0,0,0,12.17,31a22.29,22.29,0,0,0,4.77.43,11.86,11.86,0,0,0-.29,3.43A13.59,13.59,0,0,0,11.81,34.3Z"/><path class="cls-1" d="M35.4,29.47a12.11,12.11,0,0,1,.37-1.77,2.93,2.93,0,0,0,.07-.93c-.33-.29-.76-.24-1.13-.41a14.58,14.58,0,0,0,1-4.56A17.11,17.11,0,0,0,39.24,23a9,9,0,0,0-1.82,4.26c-.33.07-.54-.19-.86-.25a15.52,15.52,0,0,1-1.18,2.47Z"/><path class="cls-1" d="M20.18,33.28c-.56-.07-1,.34-1.52.52a9.14,9.14,0,0,0-1.94-4.2,24.15,24.15,0,0,0,3.43-1.39,14.27,14.27,0,0,0,1.15,4.48c-.3.4-.94.06-1.14.6Z"/><path class="cls-1" d="M37.75,16.25a8.27,8.27,0,0,0-.81,3.87,5.81,5.81,0,0,0-2.45.13,10.08,10.08,0,0,1,0-4.13C35.45,15.77,35.91,15.79,37.75,16.25Z"/><path class="cls-1" d="M16.42,23A6.06,6.06,0,0,1,19,25.71c-.34.29-.68.58-1,.88l-1,.9a10.88,10.88,0,0,0-2.56-2.73A12.75,12.75,0,0,0,16.42,23Z"/><path class="cls-1" d="M8.71,34a18.38,18.38,0,0,1,.58,2.84,25.47,25.47,0,0,0,.8,2.84c.35.88.71,1.77,1.13,2.63a23.39,23.39,0,0,0,1.44,2.47,28.87,28.87,0,0,0,1.77,2.35,22,22,0,0,1,1.72,2C12.58,47.17,7.57,36.94,8.71,34Z"/><path class="cls-1" d="M47.75,49.14a20.74,20.74,0,0,1,2.11-2.57,27.16,27.16,0,0,0,2-2.81,28.37,28.37,0,0,0,1.56-3.12,26.7,26.7,0,0,0,1-3.25,33.42,33.42,0,0,1,.72-3.3C56.2,37.14,51.59,46.58,47.75,49.14Z"/><path class="cls-1" d="M22.33,17.13a6.69,6.69,0,0,1,2.44,2.46,18.85,18.85,0,0,0-1.64,1.81A9.84,9.84,0,0,0,20.6,19,15.46,15.46,0,0,0,22.33,17.13Z"/><path class="cls-1" d="M45.1,19.83a5,5,0,0,1,2.28,1.29,7.82,7.82,0,0,0-2,2.51,6.23,6.23,0,0,0-1.72-.83A9,9,0,0,1,45.1,19.83Z"/><path class="cls-1" d="M25.85,26.14a6.9,6.9,0,0,0-2-2.82,9.81,9.81,0,0,0,2.3-1.45A11.65,11.65,0,0,0,27.65,25,6.8,6.8,0,0,0,25.85,26.14Z"/><path class="cls-1" d="M33.87,20a17.47,17.47,0,0,0,.61,3.19,14.67,14.67,0,0,0-2.29.52,9.69,9.69,0,0,0-.55-3.25A13,13,0,0,0,33.87,20Z"/><path class="cls-1" d="M21,52.83v-3c0-.27-.43-.1-.49-.42h3a1.75,1.75,0,0,1,0,.88c-.33-.14-.33-.48-.64-.64a3.25,3.25,0,0,0-1.13,0A7.24,7.24,0,0,0,21.61,51a1,1,0,0,0,.75,0c.25-.07.15-.46.48-.52V52c-.32-.07-.21-.44-.56-.58a1.52,1.52,0,0,0-.62,0,5.85,5.85,0,0,0,0,1.51A2.52,2.52,0,0,0,23,53c.35-.19.33-.63.69-.85.16.41,0,.77,0,1.14H20.52C20.52,52.94,20.82,53.06,21,52.83Z"/><path class="cls-1" d="M42.55,51.65a1.18,1.18,0,0,0,0-1,.75.75,0,0,0-1,0c-.12.23.09.49-.1.72s-.42.08-.54-.19c.36-1.06,1.23-1.26,2.27-.51.57,1.36-.81,1.43-1.51,2a12.68,12.68,0,0,0,1.69.16.37.37,0,0,1,0,.43,21.88,21.88,0,0,1-2.59,0C41,52.3,42,52.28,42.55,51.65Z"/><path class="cls-1" d="M32,52.67a2.06,2.06,0,0,0,.93.1h.75a.49.49,0,0,1,.06.48H31.16c-.06-.48.28-.63.55-.82s.65-.36.94-.6a.82.82,0,0,0,.19-1.14.59.59,0,0,0-.93-.12c-.28.24.14,1-.64.78a.59.59,0,0,1,.17-.82,1.61,1.61,0,0,1,1.71-.16.9.9,0,0,1,0,1.58C32.8,52.23,32.31,52.26,32,52.67Z"/><path class="cls-1" d="M39,53.34a1.56,1.56,0,0,1,0-3.12c.94,0,1.43.55,1.42,1.6S39.87,53.35,39,53.34Zm-.42-2.82a2,2,0,0,0,0,2.51.9.9,0,0,0,.75.06,2,2,0,0,0,0-2.62A1,1,0,0,0,38.53,50.52Z"/><path class="cls-1" d="M35.56,53.32c-1,0-1.46-.56-1.44-1.58a1.49,1.49,0,1,1,3,.06A1.41,1.41,0,0,1,35.56,53.32Zm.37-2.86c-.88,0-1.21.38-1.18,1.38s.36,1.33,1.17,1.24A1.88,1.88,0,0,0,35.93,50.46Z"/><path class="cls-1" d="M28.3,53.14a1.43,1.43,0,0,1-1.17.12c-.49-.7-.1-1.53-.29-2.32-.07-.15-.37,0-.41-.23s.35-.07.41-.29c.1-.53.1-.53.45-.75.25.2,0,.52.17.7s.56,0,.71.31c-.13.34-.5.07-.74.34a5,5,0,0,0,.11,1.81C27.76,53.08,28.05,52.88,28.3,53.14Z"/><path class="cls-1" d="M23.53,33.27l-.48,0h-.74a6.7,6.7,0,0,1,0-2c.58-.45,1.14-.09,1.75,0A6.26,6.26,0,0,0,23.53,33.27Z"/><path class="cls-1" d="M24.74,53a.66.66,0,0,0,1-.29c-.2-.81-1.32-.42-1.5-1.42,0-.74.11-.8,1.67-.81,0,.25.23.48,0,.84-.27-.25-.4-.65-.83-.62a.49.49,0,0,0-.47.36c.24.7,1.14.45,1.44,1.07.13,1-.34,1.4-1.46,1Z"/><path class="cls-1" d="M39.3,10.15a3,3,0,0,0,.34-1.44.45.45,0,0,1,.53,0c-.68.57-.53,1.49-1,2.3l-.95-2.22a2.9,2.9,0,0,0-.42,1.68.54.54,0,0,1-.47-.14A3.05,3.05,0,0,0,38,8.06C38.83,8.44,38.65,9.53,39.3,10.15Z"/><path class="cls-1" d="M9.73,30.68a2.47,2.47,0,0,0-2.29-.35c.08-.46.08-.46.7-.87l1.06-.71c-.5-.41-1.11-.16-1.6-.3l.05-.21,2.34.3A14.22,14.22,0,0,1,8.1,29.91a2.45,2.45,0,0,0,1.68.1C9.86,30.17,9.74,30.37,9.73,30.68Z"/><path class="cls-1" d="M36.1,9.16c.19-.21.39-.05.68,0a1.49,1.49,0,0,0-.29.95c-.75.06-1.45,0-1.84-.67A1.14,1.14,0,0,1,34.86,8c.58-.56,1.26-.39,2-.13l-.05.49c-.21-.15-.27-.43-.51-.52-.9-.07-1.34.25-1.36,1s.33,1,1.18,1.07c.14-.24.27-.49,0-.77Z"/><path class="cls-1" d="M28.56,10a4.6,4.6,0,0,0-.17-2.39,2.63,2.63,0,0,1,1.36,0c-.27.07-.55-.06-.84.12a.77.77,0,0,0,.1.77.71.71,0,0,0,.66-.14c.15.12.1.27.06.45-.23,0-.48-.25-.73.06a1.46,1.46,0,0,0,.1.78c.35.24.65,0,1-.08C29.65,10,29.08,9.84,28.56,10Z"/><path class="cls-1" d="M22.91,9.14c-.06.82.6,1.38.72,2.18-.71-.12-1.27-.65-2-.84l-.11.37c-.33-.22-.24-.76-.71-.85.93-.29,1.48.64,2.38.71-.23-.51-.28-1.07-.83-1.37.14-.13.27-.33.54-.19Z"/><path class="cls-1" d="M11,24.17c.05.33-.15.61-.22.94a4.8,4.8,0,0,0-2.16-.92A6.44,6.44,0,0,1,9,23a.38.38,0,0,1,.45,0c-.31.19-.57.4-.49.83l.69.33a.84.84,0,0,0,.21-.73.29.29,0,0,1,.43.13c-.17.16-.43.28-.35.64a2,2,0,0,0,.7.28c.26,0,.21-.28.39-.3Z"/><path class="cls-1" d="M54,32.34a17.19,17.19,0,0,1,2.34-1.92c-.27.74-1,1-1.5,1.75.58,0,1.09.11,1.56-.25.17.11.11.3.1.47A18.36,18.36,0,0,0,54,32.34Z"/><path class="cls-1" d="M13.75,18.86c.19.24,0,.36-.19.59a.61.61,0,0,0-.71-.37c-.28.17-.34.48-.46.82l-1.08-1.48a17,17,0,0,1,2.45.46Z"/><path class="cls-1" d="M54.66,23.42c.19-.44-.23-.5-.16-.77a2.38,2.38,0,0,1,.65,1.89c-.23-.21.07-.56-.39-.73a4,4,0,0,0-1.88.81L52.69,24A7.58,7.58,0,0,0,54.66,23.42Z"/><path class="cls-1" d="M8.32,26.07a5.74,5.74,0,0,0,2,.32.76.76,0,0,1-.16.68c-.6-.58-1.41-.42-2.18-.77-.07-.28.22-.66.18-1.08a.79.79,0,0,1,.55.16A.51.51,0,0,0,8.32,26.07Z"/><path class="cls-1" d="M50,17.29a2.28,2.28,0,0,1-.8.64c-.07-.81.39-1.56.14-2.33,0-.25.34-.4.2-.72.35.09.4.32.34.64-.1.49-.17,1-.26,1.48C49.57,17.23,49.63,17.35,50,17.29Z"/><path class="cls-1" d="M33.74,7.42a4.53,4.53,0,0,0-.12,2.34c-.19.07-.42,0-.64,0a4.36,4.36,0,0,0,.2-2.24A.86.86,0,0,1,33.74,7.42Z"/><path class="cls-1" d="M53.48,26.55,53.31,26a4.87,4.87,0,0,0,2.31-.66l.14.59A5.13,5.13,0,0,0,53.48,26.55Z"/><path class="cls-1" d="M9.74,31.44a1.12,1.12,0,0,1,0,.65A4.81,4.81,0,0,0,7.36,32a1.3,1.3,0,0,1,0-.54A4.36,4.36,0,0,0,9.74,31.44Z"/><path class="cls-1" d="M27.22,9.93c-.33.55-.93.45-1.43.63a6.53,6.53,0,0,0-.56-2.25c.11-.16.29-.15.48-.14a9.47,9.47,0,0,0,.45,2c.45.21.7-.18,1-.27Z"/><path class="cls-1" d="M46.42,14.57c0,.41.31.53.51.79-.55,0-.67-.4-.85-.71.11-.83.89-1.2,1.19-1.87.24,0,.31.23.45.37A2.76,2.76,0,0,0,46.42,14.57Z"/><path class="cls-1" d="M13.22,16.07c-.13,1.1.39,1.6,1.61,1.55a1,1,0,0,1-1.39.09C12.88,17.29,12.82,16.83,13.22,16.07Z"/><path class="cls-1" d="M11,21.76c.09.44.42.49.78.47v0a.5.5,0,0,1-.14.59,6.7,6.7,0,0,0-2.12-1.06c.1-.17.11-.45.38-.61h0c.14.63.61.69,1.13.65Z"/><path class="cls-1" d="M42,12c-.27.1-.45-.1-.64-.19a5.76,5.76,0,0,0,1.07-2.09l.44.21c-.44.44-.45,1.06-.83,1.5A.42.42,0,0,0,42,12Z"/><path class="cls-1" d="M31.86,9.61c.21-.51-.06-.75-.47-1-.68-.4-.68-.74,0-1.21a.7.7,0,0,0-.1.68c.25.37.92.38,1,1-.06.19-.05.49-.43.47Z"/><path class="cls-1" d="M16.67,12.67a.92.92,0,0,1,.46-.31,5.79,5.79,0,0,0,1.42,1.83.53.53,0,0,1-.37.26A7.93,7.93,0,0,0,16.67,12.67Z"/><path class="cls-1" d="M52.83,21.14c.34-.26.71-.15,1.21-.15-.59.73-1.25,1.23-1.73,2-.19,0-.18-.3-.27-.49l1.22-1.3-.44,0Z"/><path class="cls-1" d="M52.16,18a3.57,3.57,0,0,0-1.89,1.36c-.28-.06-.21-.44-.54-.56a3.77,3.77,0,0,0,2.1-1.26Z"/><path class="cls-1" d="M16.46,15.82A5.12,5.12,0,0,0,15,14.13c.12-.18.24-.39.54-.34l0,0c.18.85.87,1.24,1.44,1.74-.1.08-.17.42-.52.3Z"/><path class="cls-1" d="M10,20.88c.2-.36.5-.31.8-.23s.24.42.4.59c.42.19.81-.13,1.26-.08-.3.69-1,.26-1.43.6h0c-.06-.58-.29-1-1-.8Z"/><path class="cls-1" d="M44.36,13.42c1,0,1.49-.73,1.24-1.83a1.06,1.06,0,0,1,.13,1.59.94.94,0,0,1-1.36.22Z"/><path class="cls-1" d="M18.56,11.52c.21,1.17.52,1.49,1.62,1.61h0a1,1,0,0,1-1.46-.23c-.33-.4-.6-.86-.12-1.36Z"/><path class="cls-1" d="M27.2,9.91c.1-1.28,0-1.44-.87-1.81.61-.12,1,0,1.16.46s.34,1-.27,1.37Z"/><path class="cls-1" d="M44,13.29a1,1,0,0,1-.27-1.45,1.24,1.24,0,0,1,1.6-.58,1.64,1.64,0,0,0-1.21.65,1.49,1.49,0,0,0-.1,1.36Z"/><path class="cls-1" d="M54,28.61c-.4-.35-.19-.7,0-1a1.25,1.25,0,0,1,1.33-.49,1.17,1.17,0,0,1,.61.34l-.11.11c-1.19-.28-1.82.08-1.88,1.07Z"/><path class="cls-1" d="M19.06,11.06a.84.84,0,0,1,1.25.06,1.18,1.18,0,0,1,.22,1.63,2,2,0,0,0-.32-1.18A1.23,1.23,0,0,0,19.05,11Z"/><path class="cls-1" d="M52.34,19.15v-.77a.94.94,0,0,1,0,1.37c-.38.47-.89.5-1.53.13A1.48,1.48,0,0,0,52.34,19.15Z"/><path class="cls-1" d="M54.1,29a1.66,1.66,0,0,0,2.1-.57,1,1,0,0,1-.84,1A1,1,0,0,1,54.09,29Z"/><path class="cls-1" d="M28.82,52.69c.5-.12.74,0,.6.52C29,53.39,28.73,53.3,28.82,52.69Z"/><path class="cls-1" d="M52.82,21.13c-.08.12-.21.23-.15.45-.38-.36-.73-.42-1.09,0l-.2-.44h1.44Z"/><path class="cls-1" d="M21.6,11l.65,1-.39.14Z"/><path class="cls-1" d="M24.61,53.18l-.42.08a1.71,1.71,0,0,1,0-.9c.32.15.37.47.57.65Z"/><path class="cls-1" d="M31.85,9.59c-.18.33-.48.05-.65.18-.29-.11-.35-.29-.33-.76.25.6.59.68,1,.6Z"/><path class="cls-1" d="M48.22,16.85l-.32-.4.59-.13C48.46,16.54,48.26,16.66,48.22,16.85Z"/><path class="cls-1" d="M50.69,16.18c.24,0,.3.25.52.43l-.57.05Z"/><path class="cls-1" d="M13,20.14c.17.22,0,.31-.17.44a1.16,1.16,0,0,1-.26-.62l.44.2Z"/><path class="cls-1" d="M11.05,24.18c0-.25.08-.52-.14-.74.56.16.33.45.13.73Z"/><path class="cls-1" d="M43,11.15c.08.22-.16.26-.15.52l-.3-.59A.49.49,0,0,1,43,11.15Z"/><path class="cls-1" d="M14.75,14.94c-.16-.13-.41-.26-.11-.51C14.81,14.58,14.72,14.77,14.75,14.94Z"/><path class="cls-1" d="M15.23,17.28V16.5C15.62,16.77,15.57,17,15.23,17.28Z"/><path class="cls-1" d="M13.56,15.63c.28-.36.44-.21.59,0A.92.92,0,0,1,13.56,15.63Z"/><path class="cls-1" d="M54.46,30.57l-.31.4a1,1,0,0,1,0-.69Z"/><path class="cls-1" d="M48.44,13.79c.22.07.29.16.32.33l-.34.27C48.26,14.19,48.47,14,48.44,13.79Z"/><path class="cls-1" d="M7.86,26.72l.41.47C8,27.19,7.76,27.3,7.86,26.72Z"/><path class="cls-1" d="M32.13,7.88l-.39-.47C32.12,7.28,32.15,7.5,32.13,7.88Z"/><path class="cls-1" d="M43.4,10.66l-.1-.4C43.84,10.21,43.52,10.49,43.4,10.66Z"/><path class="cls-1" d="M20.46,33.64c-.17-.06-.39-.08-.28-.36h0a.72.72,0,0,1,.41.24Z"/><path class="cls-1" d="M15.72,13.63c-.08-.14,0-.25.1-.29s.17.07.21.17-.22.08-.33.1Z"/><path class="cls-1" d="M54,28.63a.34.34,0,0,1,.15.33v0c-.23-.07-.14-.23-.12-.37Z"/><path class="cls-1" d="M18.58,11.53l.11-.39h0c.15.19,0,.29-.12.39Z"/><path class="cls-1" d="M44.37,13.4c-.14,0-.3.11-.37-.11l0,0c.14,0,.24.06.34.15Z"/><path class="cls-1" d="M19.05,11c-.1.12-.19.3-.37.09h0l.37-.08Z"/><polygon class="cls-1" points="39.5 8.56 39.45 8.58 39.45 8.54 39.5 8.56"/><path class="cls-1" d="M50.4,16.88l0,.06-.08-.07.06-.05Z"/><path class="cls-1" d="M55.94,27.45l.1.18c-.14.12-.17,0-.21-.07Z"/><path class="cls-1" d="M11.82,22.23l.06,0h-.07Z"/><path class="cls-1" d="M9.93,21.13c0-.11,0-.18.08-.25l.08.09c0,.09,0,.19-.17.15Z"/><path class="cls-1" d="M35.38,29.46l-.06,0,.08,0Z"/><path class="cls-1" d="M49,15.94c0,.06-.1.06-.15,0S48.92,15.87,49,15.94Z"/><path class="cls-1" d="M16.45,15.81v.07l0-.06Z"/><path class="cls-1" d="M13.44,15.79l0,.05s-.05,0-.05-.06l.05,0Z"/><path class="cls-1" d="M13,20.16l.11-.07c0,.08,0,.15-.12.05Z"/><path class="cls-1" d="M13.76,18.88l.12-.07c0,.09,0,.15-.13.05Z"/><polygon class="cls-1" points="16.27 13.68 16.22 13.69 16.22 13.66 16.27 13.68"/><path class="cls-1" d="M15.7,13.61l-.17.16,0,0c0-.12,0-.18.17-.16Z"/><path class="cls-1" d="M20.18,13.13c-.07-.14,0-.15.11-.12s-.06.1-.13.11Z"/><path class="cls-1" d="M42,12l0,.07L42,12Z"/><path class="cls-1" d="M36.12,9.15l0-.15c.11.06.1.11,0,.16Z"/><path class="cls-1" d="M22.92,9.15V9.08l0,.06Z"/><path class="cls-2" d="M33.52,42.64c-.55-.38-.57-.73-.08-1.48C34.11,41.42,34.14,41.93,33.52,42.64Z"/><path class="cls-2" d="M32.69,41.13a1.89,1.89,0,0,1,.09-.21,1.73,1.73,0,0,1,.13-.21C33,41,32.78,41.05,32.69,41.13Z"/><path class="cls-2" d="M35.2,37.13c.09.14,0,.07,0,0l0,0Z"/><path class="cls-2" d="M33.14,40.56c0-.06.1-.06.14,0S33.18,40.63,33.14,40.56Z"/><path class="cls-2" d="M38.53,50.52a1,1,0,0,1,.74-.05,2,2,0,0,1,0,2.62.9.9,0,0,1-.75-.06A2,2,0,0,1,38.53,50.52Z"/><path class="cls-2" d="M35.93,50.46a1.88,1.88,0,0,1,0,2.62c-.81.09-1.15-.26-1.17-1.24S35.05,50.44,35.93,50.46Z"/><path class="cls-2" d="M9.92,21.12c.13,0,.15-.06.17-.15.67-.16.9.22,1,.8C10.53,21.81,10.06,21.75,9.92,21.12Z"/></svg>