<svg id="Layer_1" data-name="Layer 1" xmlns="http://www.w3.org/2000/svg" viewBox="0 0 64 64"><defs><style>.cls-1{fill:#192b49;}.cls-2{fill:#e6ecf0;}</style></defs><path class="cls-1" d="M32,64Q16.49,64,1,64c-.8,0-1-.18-1-1Q0,32,0,1c0-.8.18-1,1-1Q32,0,63,0c.8,0,1,.18,1,1q0,31,0,62c0,.8-.18,1-1,1Q47.51,64,32,64Z" transform="translate(0)"/><path class="cls-2" d="M37.09,26.56c1.15,0,2.32,0,3.48,0,2.36.14,3.53,1.48,3.59,4,.06,2.81-1,4.29-3.37,4.55a35.9,35.9,0,0,1-3.75,0c1.33-1.23.69-2.79.7-4.19S38.32,27.91,37.09,26.56Z" transform="translate(0)"/><path class="cls-2" d="M5.49,26.54c-.79.4-1.17.7-1.17,1.28a34.92,34.92,0,0,0,.12,5.41A1.75,1.75,0,0,0,6.5,34.78,1.71,1.71,0,0,0,8.36,33c0-1.7,0-3.4.05-5.11a1.62,1.62,0,0,0-.1-.62c-.31-.75-.32-.75.53-.75.61,0,1.39-.31.54.86-.44.6-.12,1.75-.15,2.66a28,28,0,0,1-.1,3.18c-.22,1.59-1.1,2.09-3.21,2-1.75,0-2.62-.72-2.71-2.25s0-3,0-4.47a3.71,3.71,0,0,0-.07-1.11c-.3-.9-.33-.89.6-.89Z" transform="translate(0)"/><path class="cls-2" d="M23.5,28.43C23,27.67,22.55,27,21.73,27a1.65,1.65,0,0,0-2,1c-.31.81.21,1.31.83,1.68s1.4.75,2.1,1.14A2.29,2.29,0,0,1,24,33.41a2.38,2.38,0,0,1-2.35,1.8,8.56,8.56,0,0,1-1.43,0c-1.69-.08-1.69-.08-1.51-2a2.34,2.34,0,0,0,2.65,1.44,1.52,1.52,0,0,0,1.38-1.15A1.4,1.4,0,0,0,22,31.85c-.72-.44-1.47-.84-2.21-1.26a2.11,2.11,0,0,1-1.18-2.38,2.07,2.07,0,0,1,2-1.7c.42-.05.85-.07,1.27-.08C23.14,26.41,24,26.75,23.5,28.43Z" transform="translate(0)"/><path class="cls-2" d="M26.84,34.94c-.91.6-1.71.48-2.17-.53s.28-1.84,1.62-2c.82-.12,1.48-.15,1.26-1.26-.09-.46-.24-.82-.71-.95a.73.73,0,0,0-1,.57c-.11.37-.26.71-.76.59a.48.48,0,0,1-.37-.46A1.07,1.07,0,0,1,25.4,30c1.59-.88,3.05-.1,3.1,1.68,0,.79,0,1.59,0,2.39,0,.63.32.86.85.9s1-.15,1-.72c0-1.22,0-2.45-.07-3.66,0-.25-.69-.52,0-.71.34-.09.92-.45,1,.25s.38.37.67.23.32,0,.18.24a3.64,3.64,0,0,0-.74,3.59c.39,1.22-.2,1-.86,1-1.26-.06-2.52-.14-3.78-.21a3.93,3.93,0,0,1-.23-.83C26.49,34.47,26.74,34.68,26.84,34.94Z" transform="translate(0)"/><path class="cls-2" d="M56,29.77a4.76,4.76,0,0,0,.1.77c.64,2,0,2.88-2.13,2.9-.3,0-.8-.39-.82.3s.46.48.81.49c.58,0,1.17,0,1.75,0a1.37,1.37,0,0,1,1.38.88,1.54,1.54,0,0,1-.51,1.71,3.71,3.71,0,0,1-3.88.36c-.52-.34-.82-.85-.56-1.35a5.56,5.56,0,0,0,.16-4.07c-.28-1.1.49-1.84,1.69-2,.62-.1,1.26.34,1.85-.09Z" transform="translate(0)"/><path class="cls-2" d="M16.23,28.74c-.72-1.25-1.63-2.24-3.17-1.68s-1.52,2-1.53,3.36a6.06,6.06,0,0,0,.32,2.35c.57,1.47,1.55,2,3.45,1.88.31,0,.83-.4.89.13s-.53.38-.88.43c-3.2.45-5-1.06-5.09-4.29a10.77,10.77,0,0,1,0-1.27,3.78,3.78,0,0,1,5.6-3C16.7,27.17,16.18,28,16.23,28.74Z" transform="translate(0)"/><path class="cls-2" d="M2.26,37.2h49v.15H2.32Z" transform="translate(0)"/><path class="cls-2" d="M60.42,29.91A2.88,2.88,0,0,1,62,33.06c-.2,1-.64,1.95-1.83,2.14a2.18,2.18,0,0,1-2.52-.93,3.31,3.31,0,0,1,0-3.48A2.09,2.09,0,0,1,60.4,30c-.52.92-1.67,1.51-1.46,2.82.07.4,0,.95.58,1s.51-.56.55-1C60.18,31.83,59.72,30.8,60.42,29.91Z" transform="translate(0)"/><path class="cls-2" d="M49,30.05c.69-.65,1.34-.27,2,.13a1.3,1.3,0,0,1,.61,1.38c-.15.68-.77.31-1.19.41-.05,0-.11,0-.16,0-.61.21-1.68-.5-1.8.52A2.14,2.14,0,0,0,50,34.76c.39.13.83.11,1.23.23a2.89,2.89,0,0,1-3.17-.4,3.22,3.22,0,0,1-.67-3.27c.15-.76.57-1.49,1.6-1.31a2.69,2.69,0,0,0,.19.38A3.39,3.39,0,0,1,49,30.05Z" transform="translate(0)"/><path class="cls-2" d="M32,30.4a1.34,1.34,0,0,1,1.8-.53c.72.27.68,1,.76,1.61.14,1.13-.42,2.33.34,3.39.08.11.27.25,0,.28a3.3,3.3,0,0,1-1.57,0c-.45-.22.28-.45.26-.81-.06-1.06,0-2.14,0-3.19s-.74-.82-1.38-.48Z" transform="translate(0)"/><path class="cls-2" d="M46.4,32.33c.22.76-.42,1.77.44,2.57.32.3-.1.26-.22.27-.37,0-.74,0-1.11,0-.71,0-.35-.12-.23-.56a7.83,7.83,0,0,0,0-4.05c-.12-.48-.37-.62.23-.72.38-.06.88-.32.88.44S46.4,31.58,46.4,32.33Z" transform="translate(0)"/><path class="cls-2" d="M61.42,37.37H57.53v-.15h4Z" transform="translate(0)"/><path class="cls-2" d="M46.51,28.11a.53.53,0,0,1-.52.54.57.57,0,0,1-.66-.54.53.53,0,0,1,.51-.65C46.21,27.43,46.45,27.59,46.51,28.11Z" transform="translate(0)"/><path class="cls-2" d="M55.83,29.66a3.11,3.11,0,0,1,.32-.53c.26-.31.61-.46,1-.18a.64.64,0,0,1,.14.57c-.11.4-.47.31-.78.28-.15,0-.31,0-.47,0Z" transform="translate(0)"/><path class="cls-1" d="M42.86,30.86c0,2.46-.89,3.65-2.72,3.76-.83.05-1.16-.22-1.14-1.06q.06-2.72,0-5.43c0-.87.35-1.09,1.16-1C42,27.24,42.87,28.38,42.86,30.86Z" transform="translate(0)"/><path class="cls-1" d="M26.84,34.94c-.34-.23-.84-.14-1.07-.57a.92.92,0,0,1,.2-1.28c.41-.32,1-.66,1.43-.32s.18.8,0,1.18a5.87,5.87,0,0,1-.64,1Z" transform="translate(0)"/><path class="cls-1" d="M54.81,35.1c.48.15,1.37-.31,1.51.74.11.77-.79,1.33-2,1.31-.83,0-1.47-.29-1.54-1.2C52.77,35.28,53.26,35.08,54.81,35.1Z" transform="translate(0)"/><path class="cls-1" d="M55.37,31.73c0,.72-.17,1.29-1,1.27s-1-.8-1.09-1.48.18-1.36,1-1.36C55.23,30.16,55.4,30.92,55.37,31.73Z" transform="translate(0)"/><path class="cls-1" d="M60.42,29.91c-.45.3,0,.53.08.76a4.19,4.19,0,0,1,.17,3.38,1.09,1.09,0,0,1-1.05.82,1.16,1.16,0,0,1-1-.6,5.1,5.1,0,0,1,0-3.53C59,29.82,60,30.6,60.4,30Z" transform="translate(0)"/><path class="cls-1" d="M49,30.05l.61.1a1.07,1.07,0,0,1,.91,1,.35.35,0,0,1-.32.44c-.57.05-1.32.27-1.68-.09-.56-.57.48-.9.52-1.44Z" transform="translate(0)"/></svg>