<svg id="Layer_1" data-name="Layer 1" xmlns="http://www.w3.org/2000/svg" viewBox="0 0 64 64"><defs><style>.cls-1{fill:#013169;}.cls-2{fill:#eff1f5;}</style></defs><path class="cls-1" d="M64,64H0V0H64ZM9,11.33c3.66.78,6.77,2.24,8.33,6.11A22.09,22.09,0,0,0,19.48,21c3.3,5,6.37,10.13,9.25,15.06V51a18,18,0,0,1-8.07,2.19c-.2.71-.4,1.31,0,1.76H43.46V53.3c-2.75-.62-5.77-.5-7.59-3.09V36.57c.81-3.3,2.4-5,3.49-7,2-3.76,4.47-7.32,6.72-11,.78-1.27,1.43-2.62,2.28-3.84C49.94,12.46,52.49,12,55,11.3V9.72H39.12v1.47c1.66,1,4,.3,5.31,2.38-3.23,6.17-6.93,12-10.56,18.25L22.92,13.29a12.89,12.89,0,0,1,6-1.93c-.34-.68.09-1.27-.4-1.68H9Z"/><path class="cls-2" d="M9,11.33V9.68H28.57c.49.41.06,1,.4,1.68a12.89,12.89,0,0,0-6,1.93L33.87,31.82c3.63-6.28,7.33-12.08,10.56-18.25-1.36-2.08-3.65-1.34-5.31-2.38V9.72H55V11.3c-2.49.65-5,1.16-6.62,3.41-.85,1.22-1.5,2.57-2.28,3.84-2.25,3.66-4.67,7.22-6.72,11-1.09,2-2.68,3.74-3.49,7V50.21c1.82,2.59,4.84,2.47,7.59,3.09v1.64H20.7c-.44-.45-.24-1,0-1.76A18,18,0,0,0,28.73,51V36.1C25.85,31.17,22.78,26,19.48,21a22.09,22.09,0,0,1-2.11-3.6C15.81,13.57,12.7,12.11,9,11.33Z"/></svg>