<svg xmlns="http://www.w3.org/2000/svg" viewBox="0 0 1080 1080"><path d="M789.62,930.25c-1.31-.41-3.78,3.67-3.93-.67-.18-5.49-.52-10.7,3.2-16.05,15.51-22.3,29.79-45.45,45.46-67.63q87.39-123.72,175.37-247a3.93,3.93,0,0,0,.79-2.88C936.61,682,863.84,768.92,787,852.08c-2.86-8.52-2.94-9.46,2.71-16,19.73-22.75,40.12-44.92,60.19-67.37,45.37-50.76,88.84-103.2,132.61-155.36,12.15-14.47,23.36-29.77,36.93-43,2.7-2.63,1.7-5.49,1.94-8.2,1.67-18.95.47-37.9-.5-56.84-.14-2.71,1.28-6.56-2.53-7.81-4-1.31-4.72,2.8-6.31,5q-69.72,96.54-139.29,193.2C845.34,734,815.6,770.49,789.07,809.39c-1,1.41-1.44,4-4.5,3.47-1.68-10.67-.6-20.06,6.77-29.34,15.28-19.24,28.41-40.24,44.08-59.14C864,689.87,888.62,652.41,916,617c1.32-1.69,3.47-3.1,2.73-8C875.4,662.65,829.12,711.65,784.29,764c-1.36-11.58-1.64-20.48,7-29,12.73-12.6,23.42-27.23,35.7-40.33,58.65-62.56,113.16-128.77,170.12-192.81,20.09-22.59,20.23-22.63,14-51.83-2.2-10.26-5.34-20.32-8.54-32.35C929.69,512.85,857.87,607,783.82,700.14c-2.36-7.46-.65-13.21,4-19.18,16.07-20.66,30.68-42.54,47.61-62.45,35-41.19,65.79-85.6,99.19-128,1.07-1.36,3.31-2.42,1.83-6.49C886.87,544.26,834.62,601,782.93,660.4c-1.27-9.63-1.36-16.69,5.13-23.68,15.61-16.81,29.86-34.89,45.61-51.57,52.27-55.32,100.3-114.36,151.08-171,2.21-2.48,4.18-5.17,6.3-7.73,1.26-1.52,3.23-3.46.81-4.92-12-7.25-9-21.1-14-31.4-2.55-5.22-3.73-11.11-6.36-19.27-62.86,84.59-124.07,167.68-188.9,248.82-1.9-8.37,0-14.69,5.08-21.18,15.88-20.44,30.43-41.94,46.83-61.93,10.81-13.17,21.31-26.44,30.71-40.66C836.37,504.36,810,535,782.69,567.07c-1.35-10.19-2-17.92,5.15-25.49,15.32-16.18,29.11-33.81,44.58-49.82,41.57-43,80-88.84,120.27-133,16.23-17.76,16.49-17.75,5.78-39-5.19-10.27-11.12-20.17-17.43-31.51-45.9,60.74-91,120.28-139.82,180,2.94-30.18,26.76-44.78,39.22-67.25-5,1.69-7.54,6.56-10.86,10.3-3.76,4.22-7.48,8.47-11.2,12.72s-7.32,8.44-11.47,13.22c-2.72-8.5-.24-14.24,5.08-20q60.35-65.46,118.12-133.21c3.78-4.43,3.94-7.28.79-11.83-8.66-12.53-16.9-25.35-26.09-39.24-34.45,46.53-71.88,88.88-107.4,134.5-1.75-3.92-2.43-7.3-4.4-9.54-5.48-6.25-2.93-10.73,1.68-16.07,18.62-21.53,37.23-43,56.6-63.92,14.68-15.84,27.93-33,42.15-49.28,3.22-3.69,3.62-5.94.39-9.82a231.2,231.2,0,0,0-27.62-28.7c-4.81-4.11-6.83-3-10.6,1.56-32.32,39.14-62.33,80-93.15,120.33-1.46,1.9-2.25,6.05-5.46,4.52a74,74,0,0,1-14.47-9.37c-1.14-.92,1.57-3.22,2.82-4.7q44.48-52.41,89-104.79c3.8-4.46,8.07-8.53,12.18-12.72s4.55-7.73-1.3-10.7C833,168.14,822.07,160.09,811,152.25c-5.18-3.68-7.19.16-9.48,3-13.14,16.24-26.3,32.47-39.09,49-21.16,27.32-42.29,54.68-62.86,82.44-5.17,7-10.27,10.28-19,8.57-4.37-.85-9.13.3-16,.66,9.47-10.85,17.54-20.27,25.8-29.54,34.06-38.22,68-76.51,101.1-115.6,4.46-5.28,5.45-8-1.44-11.65-10.81-5.79-21.37-12.13-31.63-18.87-5.78-3.79-8.86-2.57-12.82,2.68-26,34.47-51.42,69.44-78.83,102.77-21,25.53-40.56,52.05-60.69,78.2-3.83,5-9.49,5.5-17.46,8.14L650,230.69l-1.6-1.25L595,291.91c-4.32,5.06-9.21,9.74-12.85,15.25-9,13.66-24,16.32-39.88,23.57C607.27,254,675.7,184.32,741,110.2c-16.16-8.41-31.33-16.39-46.63-24.12-1.58-.79-3.61-2.5-6,.42-53.27,66-102.14,135.3-152.34,203.59-12,16.33-25.17,32-35.74,49.17-9,14.72-23.51,20.12-37.53,27.36,42.71-52.71,82.06-107.85,122.5-162.25C515,284.62,441.52,362,372,444.77c-2.49-9.36-.44-15.21,4.85-21.16,33.82-38,66.34-77.24,101.12-114.35,61.53-65.65,118.76-135.1,179.88-201.07,7.83-8.45,15.86-16.54,22.47-27.33-19-6.56-38.37-10.24-57.5-14.69-2.81-.65-3.81.8-5.37,2.93q-45.16,61.79-90.63,123.35c-13,17.64-25.16,35.91-38.93,52.91-39.26,48.46-74.54,99.87-112.55,149.26-1.1,1.43-1.81,3.65-4.51,3.68-1.7-7.1-.2-13,4.3-19,33.63-44.92,66.15-90.69,100.73-134.87,19.92-25.45,38.68-51.67,57.78-77.73C478,225.57,424.74,286.49,371.69,348c-3.73-11.24-3.16-14.62,3.81-22.45,32.52-36.53,64-74,97.84-109.31,41.8-43.67,80.86-89.74,121.35-134.55,4.63-5.12,8.61-10.83,13.87-17.51-21.27-4-41.5-5.83-61.84-6.93-4-.21-4.88,2.78-6.57,5-16.42,22-32.09,44.65-49.35,66-41.13,50.89-78.23,104.77-117.58,157a49.81,49.81,0,0,1-3.36,3.69c-2.43-11-2.45-11.21,4.24-20.25q46-62.27,92.14-124.51a3.85,3.85,0,0,0,.53-4.16l-97.1,111.44c-2.38-11.53-2.26-11.42,4.16-19,32.15-37.72,63.77-75.9,96.51-113.09,18.13-20.6,36.54-40.93,54.44-62.66a233.48,233.48,0,0,0-102.73,5.62c-16.15,4.48-31.2,12.73-48.3,14-2.92.22-7.21,3.78-7.68-1.27s-3.19-13.07,3.16-15c12.38-3.72,24-7.44,35.38-14.6,13.2-8.36,29.83-8,45.42-9.14,51.49-3.61,103.05-2.57,154.6-2.68,11.94,0,22.78,4.47,33.42,8.94,27.45,11.54,54.59,23.78,82,35.39,3.9,1.65,9,8.9,13.06-1.08.86-2.1,6.73.5,10.1,1.52,23.85,7.23,44.5,20.37,64.52,34.8,54.67,39.39,101.76,86,137.9,143.22,1.09,1.73,1.61,4.17,4.55,4.78,5.17,1.06,8.06,3.45,5.5,9.72-.77,1.86,2,5.29,3.39,7.88,9.38,17.5,20.42,34.33,27.81,52.63,7.12,17.63,15.78,34.53,22.27,54.09,2.41-2.53,3.64-4.25,5.25-5.45,4.64-3.48,7.76-.38,11.15,2.57,3.64,3.17,2.21,6.07-.55,8-10.77,7.48-8.67,15.38-4,26.09,5.71,13,8,27.55,11.85,41.4,2.69.62,3.42-1.6,4.67-2.93,2.2-2.34,4.25-4,7.54-1.35s2.34,5.93,0,7.63c-11.6,8.55-8.65,19.81-7.08,31.35a361.31,361.31,0,0,1,3.19,52.12c8.19-9.75,15.49-17.66,21.82-26.26,4.1-5.56,7.08-2.21,10.63-.2,4.71,2.68,3.14,5.43.42,8.69-3,3.55-5.2,7.69-8.12,11.27-16.49,20.22-30.1,41.13-30.29,69.08-.12,17-6.43,33.56-9.38,50.85,8.42-10.21,16.78-20.45,25.28-30.58,1.7-2,3.14-5.74,7-2.59,3.11,2.56,3.64,5.26.84,8.46-14.17,16.18-25.87,34.46-41.84,49.13-3.45,3.16-5.07,7.44-6.58,11.94-14.18,42.24-30.44,83.6-51.41,123-28,52.71-68,94.84-116,129.43-18.1,13-37.78,23.87-57,35.87-3.15-12.57-.27-20.07,11.09-27.25C829,936.13,860.12,916.06,886.2,889c34.32-35.66,58.84-77.35,79-122a312.76,312.76,0,0,0,13.27-35.3C916,805.53,853.27,879,786.62,949.85c-3.08-7.34,0-13.54,2.83-19.79,2.14.71,2.86-1.14,3.88-2.25q26.5-28.93,52.46-58.39c44-49.82,86.17-101.34,129.83-151.52,12.28-14.11,20.88-29.25,25.1-47.31,4.56-19.48,9.92-38.79,12-58.94a7,7,0,0,0-2.89,2.62q-63.35,90.32-126.67,180.65c-14.09,20.14-27,41.22-42.17,60.47C822.13,879.25,805.52,904.47,789.62,930.25Z" style="fill:#2f4f4f"/><path d="M693.93,847.93c3.14,11.11.73,19.27-6.85,27.49-48.64,52.73-96.8,105.92-145.1,159-1.75,1.92-3.4,3.93-6.1,7,18,1.61,34.65-2.4,51.3-2.06,13.77.27,21.24-7.69,29-17.29,13.54-16.8,26.23-34.27,39.79-51,14.06-17.37,25.87-36.37,40.12-54.16,5.49,14.46-2.56,23.88-9.46,34.3,1.64-1.42,3.33-2.77,4.9-4.26s3.07-3.19,5.24-5.46c2.22,7.07,1,11.76-3.3,16.89-18,21.27-38.88,39.8-57.35,60.6-3.46,3.9-6.81,7.91-11.65,13.54a486.52,486.52,0,0,0,75.09-27.78c.48,8,.92,14.69,1.3,21.43.25,4.47-3.19,5.08-6.37,6.27-28.72,10.78-58.74,16.18-88.78,21.45-29.62,5.21-59.65,5.56-89.4,3.74-70.42-4.32-139.58-15.31-205.33-42.92C257,992.08,213.8,955.05,170.9,916.54,90.61,844.48,40,755.76,15.89,651.35,6.46,610.57,5.23,569.25,8.4,527.48c4.11-54.09,13.58-107.06,30-158.65,17.26-54.08,46-102.47,82.26-145.42C151.61,186.81,183.13,150,223.77,123c10-6.62,20.17-12.86,30.17-19.41,4.7-3.07,5.55-1.74,6.28,3.51,1.88,13.4-1.61,21.78-14.58,29.22-45.79,26.3-82,63.17-115.77,103.81-38.21,46-60.94,98.6-78.56,154.41a17.12,17.12,0,0,0-.22,3.48c76.14-71.22,145-148.28,208.72-230.42,1.52,15.55,4.33,29.84-5.46,44.6-42,63.39-82.44,127.85-124.54,191.19-10.69,16.09-22.19,31.71-32.6,48.07,57.13-57.83,108.58-120.72,163.42-182.58,1.71,9,0,14.94-5.3,21-41.94,47.26-82.86,95.44-125.57,142-19.46,21.2-38.61,42.75-58.65,63.42-11.9,12.28-21.4,26.17-30.87,40.22-1.4,2.07-2,6.54-6.2,4.92-10.65-4-9.33,3-9.36,9.5-.3,75.69,16.4,147.35,51,216.29,63.65-77,123.78-155.62,183.89-235.5,2,9,.23,15.27-5.11,21.76a355.94,355.94,0,0,0-30.85,44.11l35.92-40.88c1.81,7.59,2.07,13.48-3.15,19.45-42.27,48.31-83.84,97.25-126.72,145-14.83,16.5-29.07,33.37-43,50.57-3.64,4.5-4.57,7.94-1,13,8.51,12.15,16.46,24.7,25.24,38C165.7,760.53,210.9,693.65,262,629c.72,13.54,1.49,25.79,2,38.06.12,3.23-2.76,5.16-4.71,7.38-43.5,49.86-88.88,98.07-130.42,149.63-1.59,2-3.88,3.37-5.86,5-2.9,2.39-3.14,5-.29,7.47,11.71,10.36,19.93,23.8,31.64,35.61l114.14-148c0,7.19.92,11.61-.28,15.36-1.06,3.32-.31,3.48,2.23,4.93,4.72,2.68,4.38,5.92.57,10.17-21.09,23.52-41.85,47.34-62.72,71.06-14.48,16.46-28.85,33-43.55,49.3-3.57,4-2.95,6.44.45,9.85,9.38,9.44,18.72,18.93,27.64,28.79,4.9,5.42,7.61,4.72,11.81-1,25.74-34.91,52-69.42,77.72-104.35,10.57-14.38,22.46-27.65,33.18-41.85,4.06-5.36,8.3-4,14.38-2.78-19.07,28-43.4,51.17-60.24,80.21,4.14-4.67,8.24-9.37,12.42-14,18.63-20.64,38.8-39.88,56.31-61.53,3.78-4.68,7.86-3.63,13.87-2.06-12.18,14-23.26,27.93-35.6,40.67-35.6,36.75-68,76.34-102.26,114.25-4.74,5.24-4.8,7.88,1,12,9.44,6.77,18.53,14.1,27.31,21.72,4.87,4.23,7.32,3.23,10.81-1.64q11.63-16.18,24.29-31.63c40.2-49,78.63-99.4,117.37-149.55,4.86-6.29,4.91-6.25,19.17-5.7l-34.52,44.58,1.61,1.28c11.26-12.83,23-25.28,33.56-38.67,5.46-6.92,11.05-9.33,20.28-6.3C425,779,415,790.49,405,801.89c-30.74,35-60.93,70.49-92.53,104.68-16.64,18-33.06,36.23-49.73,54.22-3.93,4.25-4.09,6.64,1,9.55C274.91,976.74,286,983.21,297,990c6.47,4,10.16,2.34,14.66-3.71,54.5-73.33,108.93-146.73,164.43-219.32,9.77-12.78,17.82-29.27,39.18-33.23C475.53,782.82,438,831.21,403.51,882c15.22-17.55,30.32-35.19,45.67-52.63,32.45-36.86,65.16-73.51,97.46-110.51,6.46-7.41,14.8-9.19,25.66-12.31C487,805.24,399.86,899.16,316.7,997.86c16,7.3,32,12.71,48,17.95,4.59,1.5,6.4-2.32,8.58-5.17,32-41.91,63.17-84.5,96.22-125.57,49.94-62.06,96.45-126.71,145.2-189.66,4.87-6.29,12-7.12,18.76-9.46-55.75,73.45-110,147.74-167,220,76.36-79.68,143.73-167.4,220.58-247.83,3,10.73,1.1,18.44-6,26.14-65.73,70.93-127.36,145.53-192.88,216.61C453.92,938,420.74,976,386.3,1012.91c-4.15,4.44-8,7.83,2.47,9.41,14.6,2.2,29,5.79,43.4,9.25,5.13,1.24,7.26-1.58,9.72-4.8,10.11-13.2,19.85-26.7,30.42-39.52,64-77.61,123.23-158.9,185.48-237.84,10.07-12.77,20.21-25.59,31-38.65,3.06,8.13.64,14.09-4.24,20.09C644,780.76,605.69,832.42,567.31,884a14.1,14.1,0,0,0-2.88,5.85C606.68,843.39,646.59,795,691,749.46c1.74,10.24.45,18-6.74,25.78-67,72.08-129.78,147.84-195.72,220.82-11.26,12.47-23.2,24.32-34.21,37.57,7.07,4.25,14.75,2.52,21.76,3.83,11.32,2.13,23.14,1.44,34.67,2.66,6.85.72,10.84-1.81,14.64-7.28Q587.57,943.2,653.82,856.5c12.45-16.39,25.6-32.39,39-49.47,1.6,8.22.79,14-4,20.19C654.6,870.69,621,914.56,589.19,959.83c-1.32,1.89-3.05,3.48-3.59,6.14C621.81,926.93,656.94,886.86,693.93,847.93ZM26.12,529.31c62.21-103.67,133.33-201,199.81-301.64-2.91,1.54-4.84,4-7,6.2-36.51,39-68.46,81.95-105.45,120.53-17,17.75-33.41,36.11-49.78,54.48-5.44,6.1-10.12,11.07-16.57.66C34.21,449.08,28.09,488.73,26.12,529.31Z" style="fill:#2f4f4f"/><path d="M105.07,538.12c54-55.8,102.32-116.5,154.48-174.93,2,7.82.33,13-4.78,18.9-39.49,45.33-77.62,91.87-117.9,136.47-31.34,34.71-61.14,70.68-92.11,105.67-1.59,1.8-2.61,5.17-6.19,2.71-4-2.79-4.64-7-3.7-11.09.55-2.41,2.81-4.44,4.34-6.61,26.31-37.56,51.61-75.89,79.19-112.5,47.53-63.1,90.86-129.16,137.68-192.73,1-1.3,2-2.56,3.94-5.15,1.23,10.38,2.07,18.66-3.94,27.06-42.32,59.21-84,118.88-126.6,177.88C121.28,515.16,112.16,525.86,105.07,538.12Z" style="fill:#2f4f4f"/><path d="M193.7,530.53l65.72-75.73c1.25,10.93,1.21,18.93-6.12,27.28C213.16,527.76,174.22,574.5,133.87,620c-19.11,21.53-38.4,42.88-56.81,65-2.07,2.48-4,8.43-9.11,3.83-4.33-3.92-3.56-8.2.27-12.48,18.83-21,33.9-45,51.11-67.25,46.63-60.34,90.08-123,136.52-183.51,1-1.25,2-2.48,3.16-4,2.36,12.78,2.39,12.79-4.29,21.93q-28.5,39-57.05,78c-1.88,2.57-3.63,5.23-5.45,7.85Z" style="fill:#2f4f4f"/><path d="M607.5,403.89C580.23,439.56,553.6,474.4,527,509.23c-12.12,15.84-23.55,32.27-36.56,47.34-20.15,23.35-38.23,48.27-57.14,72.56-2.52,3.22-4.16,6.4-9.24,2.64s-2.86-6.09-.25-9.5c18-23.48,35.05-47.74,54-70.41,36.2-43.29,69.25-89,104-133.39C588.45,410,596.23,405.62,607.5,403.89Z" style="fill:#305050"/><path d="M661.53,398.15c8,10.18.39,14.44-4.67,20.24-28.41,32.55-56.46,65.42-84.7,98.12-28,32.46-55.81,65.12-84.42,97-6.74,7.53-14.44,14.38-21.11,22.09-4,4.65-8.61,3.51-15.52,3.18C524,559.81,591.41,478.31,661.53,398.15Z" style="fill:#304f4f"/><path d="M666,422.93c4.51,14.21-3.13,20.14-9.07,27.72-20.9,26.64-40.85,54-61.26,81-22.21,29.4-44.81,58.52-66.67,88.18-7.12,9.67-16.61,14.48-29.7,19.79Z" style="fill:#305050"/><path d="M412.75,595.59c-.83-11.76,2-19.15,8.23-26.08,18.67-20.72,35.84-42.86,55.28-62.79,22.48-23,42.53-48.11,64.19-71.79,7.39-8.08,17.08-11.71,28.46-16.54C518.53,479.9,464.12,535.09,412.75,595.59Z" style="fill:#305050"/><path d="M367.55,170.41c-2.66-13.93-.84-24.75,9.16-34.94,13.17-13.42,24.47-28.68,36.5-43.21,2.74-3.31,5.23-8.17,10-3.36,3.72,3.75,6,8.35,1.18,13.57-11.42,12.45-22.86,24.9-33.75,37.8C382.67,149.73,375.55,159.9,367.55,170.41Z" style="fill:#305050"/><path d="M573.72,594.05l88-100.7c.73,16.1-8.45,24.29-16.21,33.35-20.08,23.43-38.83,48.18-65.6,64.84C578.31,592.53,577.23,594.46,573.72,594.05Z" style="fill:#315050"/><path d="M459.71,493.34,427.16,536C428.78,523,440.58,507.19,459.71,493.34Z" style="fill:#4f6a6a"/></svg>