<svg xmlns="http://www.w3.org/2000/svg" viewBox="0 0 1080 1080"><defs><style>.a{fill:#2f4f4f;}</style></defs><path class="a" d="M452.25,427.33l-.19.15-.76.6a153.38,153.38,0,0,0-13,11.77q-41.56,42-41.57,101.09,0,58.08,42.1,100,21.63,21.56,47.53,32a142,142,0,0,0,49.74,9.89c1,0,2,0,3.09,0q50,0,87.77-29.4l.19-.15.76-.61a156.65,156.65,0,0,0,13-11.76q41.55-42,41.56-101.1,0-58.06-42.09-100-21.63-21.56-47.53-32A141.65,141.65,0,0,0,543.11,398c-1,0-2.05,0-3.08,0Q490,397.93,452.25,427.33Z"/><path class="a" d="M540,0A540.49,540.49,0,0,0,396.48,19.29V288.1q63.33-36.19,142.69-36.19,3.93,0,7.82.09,63.35,1.26,116.28,25.87Q707.9,298.51,745,335.55q83.73,83.65,83.72,205.61V996.41C979.74,900.67,1080,732.05,1080,540,1080,241.77,838.23,0,540,0Z"/><path class="a" d="M682.71,792.74Q619.38,828.94,540,828.93c-2.62,0-5.23,0-7.83-.09Q468.87,827.58,415.92,803q-44.62-20.64-81.72-57.68-83.71-83.65-83.72-205.61V84.1C99.9,179.93,0,348.29,0,540c0,298.23,241.77,540,540,540a540.39,540.39,0,0,0,142.71-19.07Z"/></svg>